<svg xmlns="http://www.w3.org/2000/svg" width="37.719" height="53.97" viewBox="0 0 37.719 53.97">
  <defs>
    <style>
      .cls-1 {
        fill-rule: evenodd;
      }
    </style>
  </defs>
  <path id="_" data-name="î" class="cls-1" d="M367.491,1923.53a3.155,3.155,0,0,0,.61-0.88,2.483,2.483,0,0,0,.235-1.07,2.607,2.607,0,0,0-.767-1.88,2.515,2.515,0,0,0-1.862-.78,2.418,2.418,0,0,0-.8.13,2.663,2.663,0,0,0-.7.34l-2.754,1.88-2.378,1.66-0.626-1.53-1.158-2.92c0.02,0.36.026,0.7,0.015,1.02s-0.015.61-.015,0.86a2.441,2.441,0,0,0-.031.39c0,0.14-.011.32-0.032,0.55-0.146,1.34-.334,2.64-0.563,3.92s-0.491,2.45-.783,3.54a2.877,2.877,0,0,0,.877.64,2.5,2.5,0,0,0,1.1.24,2.72,2.72,0,0,0,.8-0.13,2.657,2.657,0,0,0,.7-0.34l7.887-5.42a0.548,0.548,0,0,0,.125-0.1,0.476,0.476,0,0,1,.126-0.09v-0.03Zm-8.325,10.99a3.093,3.093,0,0,1,1.7,2.15,10.729,10.729,0,0,1,.266,3.15v12a3.019,3.019,0,0,1-.907,2.22,2.971,2.971,0,0,1-2.191.91h-0.031a2.532,2.532,0,0,1-2.269-1.35,5.156,5.156,0,0,1-.8-2.44l0.25-10.46-5.7-2.92-1.565,4.86a3.329,3.329,0,0,1-.97,1.64,3.632,3.632,0,0,1-1.721.9l-10.579,1.66a3.3,3.3,0,0,1-.453.09,3.844,3.844,0,0,1-.486.03,2.965,2.965,0,0,1-1.987-.73,3.06,3.06,0,0,1-1.048-1.84,3.015,3.015,0,0,1-.047-0.31,3.068,3.068,0,0,1-.016-0.31,2.931,2.931,0,0,1,.782-2.03,2.968,2.968,0,0,1,1.941-.98l8.732-1.35,2.128-7.33c0.1,0.02.141,0.01,0.109-.05s0-.08.11-0.08a3.7,3.7,0,0,0,2.691-1.11,3.651,3.651,0,0,0,1.127-2.71,3.558,3.558,0,0,0-.2-1.2,3.935,3.935,0,0,0-.548-1.05l-1.94-2.7-0.376-.53q0.031-.225.078-0.45c0.032-.16.057-0.31,0.078-0.46l5.227-2.29a3.823,3.823,0,0,0,1.643-1.37,3.789,3.789,0,0,0,.3-3.69,4.048,4.048,0,0,0-.907-1.26,0.728,0.728,0,0,1,.141.01,0.883,0.883,0,0,0,.172.02,4.1,4.1,0,0,1,2.566,1.25,5.576,5.576,0,0,1,1.111,2.29,9.482,9.482,0,0,1,.235,2.6c-0.042.9-.073,1.67-0.094,2.32-0.146.94-.292,1.86-0.438,2.78q-0.251,1.38-.517,2.7c-0.177.88-.359,1.72-0.547,2.54s-0.376,1.57-.564,2.28c0.105,0.07.449,0.23,1.033,0.5,0.605,0.28,1.236.57,1.894,0.88s1.246,0.6,1.768.85Zm-12.988-7.95a2.222,2.222,0,0,1,.391.72,2.628,2.628,0,0,1,.141.87,2.532,2.532,0,0,1-.783,1.85,2.576,2.576,0,0,1-1.878.79,2.615,2.615,0,0,1-1.048-.22,2.737,2.737,0,0,1-.861-0.63,0.649,0.649,0,0,1-.109-0.13,1.2,1.2,0,0,0-.11-0.12l-5.633-7.74a2.956,2.956,0,0,1-.36-0.72,2.6,2.6,0,0,1,.3-2.29,2.616,2.616,0,0,1,1.158-.97l7.2-3.13,3-1.32a4.38,4.38,0,0,1,.516-0.15,2,2,0,0,1,.548-0.07,2.538,2.538,0,0,1,1.878.79,2.566,2.566,0,0,1,.782,1.88,2.486,2.486,0,0,1-.454,1.44,2.754,2.754,0,0,1-1.142.97l-5.7,2.47-1.5.66,1.721,2.35Zm10.515-14.76a2.9,2.9,0,0,1-.5.08c-0.167.01-.344,0.01-0.532,0.01a5.42,5.42,0,0,1-5.351-4.45,2.66,2.66,0,0,1-.079-0.5c-0.01-.16-0.015-0.34-0.015-0.53a5.461,5.461,0,1,1,9.639,3.54,5.35,5.35,0,0,1-3.192,1.85h0.031Z" transform="translate(-330.625 -1900.97)"/>
</svg>
