<svg xmlns="http://www.w3.org/2000/svg" viewBox="0 0 22.8 53"><switch><g><path d="M1.4 25.1l-.8.5c-.3.2-.5.5-.6.9s0 .8.2 1.1l.1.2c.3.5.9.5 1.4.6.4 0 .7.1 1.1.2.6.2 1.1.6 1.5 1.2.5.9.2 2 .1 2.6C3.2 37 2 41.7.9 46.3 0 50.2 2.1 53 6.2 53c4.5 0 8.5-1.5 12.1-4 .3-.2.5-.4.7-.6.7-.9.4-1.7-.7-1.9-.3-.1-.7-.1-1-.2-2.2-.6-2.8-1.6-2.2-3.8 1.2-4.7 2.3-9.4 3.5-14.1.8-3.1-.7-5.7-3.6-6.4-.8-.2-1.6-.3-2.4-.3-1 0-2 .2-3 .3-.6.1-1.2.2-1.7.4-1 .3-2 .6-3 1-.6.2-1.3.6-2.2 1l-1.3.7zM15.3 0c-2 0-3.9.7-5.4 2.1S7.7 5.5 7.7 7.5c0 2.7 1.4 5.2 3.7 6.6s5.2 1.4 7.6.1c2.3-1.3 3.8-3.8 3.8-6.5 0-2-.7-4-2.2-5.4C19.2.8 17.3 0 15.3 0z"/></g></switch></svg>