<svg xmlns="http://www.w3.org/2000/svg" width="32.56" height="53.63" viewBox="0 0 32.56 53.63">
  <defs>
    <style>
      .cls-1 {
        fill: #131317;
        fill-rule: evenodd;
      }
    </style>
  </defs>
  <path id="_копия" data-name=" копия" class="cls-1" d="M1022.67,1919.2l-19.62-.32c-0.17.73-.32,1.48-0.46,2.24s-0.25,1.52-.33,2.3-0.16,1.56-.22,2.35-0.1,1.6-.11,2.42a43.667,43.667,0,0,0,.33,4.62,38.609,38.609,0,0,0,.74,4.25l18.54,0.32c0.18-.74.34-1.47,0.5-2.21,0.15-.76.28-1.52,0.4-2.28s0.22-1.55.32-2.35c0.08-.79.13-1.59,0.17-2.38v-0.38c0-1.53-.07-3.03-0.21-4.48s-0.35-2.82-.6-4.1h0.55Zm2.84-6.4c0.4,1.2.77,2.42,1.1,3.66s0.65,2.5.91,3.78,0.48,2.6.65,3.96c0.17,1.34.31,2.72,0.4,4.13-0.09,1.3-.23,2.6-0.4,3.9-0.17,1.28-.39,2.54-0.64,3.77s-0.54,2.44-.87,3.62c-0.3,1.18-.65,2.32-1.04,3.4l-26.53.44c-0.405-1.2-.782-2.42-1.129-3.67q-0.492-1.86-.882-3.78c-0.261-1.28-.478-2.6-0.651-3.95s-0.319-2.72-.434-4.13q0.173-1.98.434-3.9c0.173-1.28.385-2.54,0.636-3.79s0.531-2.44.839-3.6c0.328-1.19.675-2.32,1.042-3.41h26.675Zm-5.82-11.49,2.98,8.95h-20.74l2.95-8.95h14.81Zm-14.81,53.64-2.95-8.96h20.74l-2.98,8.96h-14.81Z" transform="translate(-996 -1901.31)"/>
</svg>
