<svg xmlns="http://www.w3.org/2000/svg" width="57.066" height="54" viewBox="0 0 57.066 54">
  <defs>
    <style>
      .cls-1 {
        fill-rule: evenodd;
      }
    </style>
  </defs>
  <path id="_" data-name="î‚" class="cls-1" d="M1031.42,2248.65a21.076,21.076,0,0,0,1.13-3.72,20.12,20.12,0,0,0,.39-3.98,19.757,19.757,0,0,0-1.58-7.87,20.227,20.227,0,0,0-4.35-6.44,20.706,20.706,0,0,0-6.42-4.33,19.733,19.733,0,0,0-7.87-1.59h-0.1v-6.74h0.14a26.092,26.092,0,0,1,10.47,2.12,26.975,26.975,0,0,1,14.37,14.37,26.105,26.105,0,0,1,2.12,10.48,24.191,24.191,0,0,1-.24,3.43,23.586,23.586,0,0,1-.61,3.29,25.355,25.355,0,0,1-1,3.09,21,21,0,0,1-1.33,2.88l4.63,4.69-21.57,7.04,7.3-21.48Zm-37.594-15.34a20.975,20.975,0,0,0-1.123,3.72,20.263,20.263,0,0,0,1.189,11.85,20.164,20.164,0,0,0,4.345,6.44,20.755,20.755,0,0,0,6.423,4.33,19.733,19.733,0,0,0,7.87,1.59h0.09v6.74h-0.13a26.092,26.092,0,0,1-10.47-2.12,26.987,26.987,0,0,1-14.372-14.37,26.1,26.1,0,0,1-2.115-10.48,25.226,25.226,0,0,1,.232-3.43,24.5,24.5,0,0,1,.611-3.29,25.035,25.035,0,0,1,1.008-3.09,20.612,20.612,0,0,1,1.321-2.88l-4.625-4.69,21.57-7.04-7.3,21.48Z" transform="translate(-984.094 -2213.97)"/>
</svg>
