<svg xmlns="http://www.w3.org/2000/svg" viewBox="0 0 54 54"><switch><g><path d="M47.5 44.6L37.8 35c1.7-2.3 2.7-5.1 2.7-8s-.9-5.7-2.7-8l9.6-9.6C51.7 14.3 54 20.5 54 27s-2.3 12.7-6.5 17.6zM27 13.5c2.9 0 5.7.9 8 2.7l9.6-9.6C39.7 2.3 33.5 0 27 0S14.3 2.3 9.4 6.5l9.6 9.6c2.3-1.7 5.1-2.6 8-2.6zM16.2 35c-1.7-2.3-2.7-5.1-2.7-8s.9-5.7 2.7-8L6.5 9.4C2.3 14.3 0 20.5 0 27s2.3 12.7 6.6 17.6l9.6-9.6zM27 54c6.5 0 12.7-2.3 17.6-6.6L35 37.8c-2.3 1.7-5.1 2.7-8 2.7s-5.7-.9-8-2.7l-9.6 9.6C14.3 51.7 20.5 54 27 54z"/></g></switch></svg>