<?xml version="1.0" encoding="UTF-8"?>
<!-- Generated by Pixelmator Pro 3.1.1 -->
<svg width="1885" height="252" viewBox="0 0 1885 252" xmlns="http://www.w3.org/2000/svg" xmlns:xlink="http://www.w3.org/1999/xlink">
    <g id="g1">
        <g id="g2">
            <linearGradient id="linearGradient1" x1="86.5884" y1="76.5342" x2="191.8179" y2="22.4197" gradientUnits="userSpaceOnUse">
                <stop offset="1e-05" stop-color="#ffffff" stop-opacity="1"/>
                <stop offset="0.4745" stop-color="#e6e7e8" stop-opacity="1"/>
                <stop offset="1" stop-color="#939598" stop-opacity="1"/>
            </linearGradient>
            <path id="path1" fill="url(#linearGradient1)" fill-rule="evenodd" stroke="none" d="M 62 119.299988 L 134.899994 26 C 161.899994 -8.5 181.199997 39.299988 180.300003 39.799988 C 176.5 33 172 29.700012 166.800003 29.700012 C 150.399994 29.900024 76.099998 105.099976 62 119.299988 Z"/>
            <linearGradient id="linearGradient2" x1="148.8543" y1="-34.3228" x2="237.9224" y2="140.4794" gradientUnits="userSpaceOnUse">
                <stop offset="1e-05" stop-color="#ffffff" stop-opacity="1"/>
                <stop offset="0.4745" stop-color="#f1f2f2" stop-opacity="1"/>
                <stop offset="1" stop-color="#bcbec0" stop-opacity="1"/>
            </linearGradient>
            <path id="path2" fill="url(#linearGradient2)" fill-rule="evenodd" stroke="none" d="M 134.800003 26 L 141.399994 17.5 C 160 -6 184 -6.900024 199.399994 20.5 C 203.399994 28.299988 206.899994 35.099976 210 41.099976 C 216.300003 53.400024 223.899994 70.5 231.399994 82.200012 C 239.700012 95.200012 248.299988 98 257.200012 90.599976 C 246.399994 105 230.199997 114 214.800003 101 C 210.5 97.400024 206.899994 92.299988 203.899994 85.700012 C 191.600006 61.900024 184.199997 47.700012 181.800003 43 C 180.5 40.400024 179.100006 37.700012 177.600006 35.099976 C 164.300003 11.099976 149.399994 8.200012 134.800003 26 Z"/>
            <linearGradient id="linearGradient3" x1="325.1995" y1="13.0982" x2="245.5135" y2="92.5628" gradientUnits="userSpaceOnUse">
                <stop offset="1e-05" stop-color="#f1f2f2" stop-opacity="1"/>
                <stop offset="0.4745" stop-color="#ffffff" stop-opacity="1"/>
                <stop offset="1" stop-color="#ffffff" stop-opacity="1"/>
            </linearGradient>
            <path id="path3" fill="url(#linearGradient3)" fill-rule="evenodd" stroke="none" d="M 276.899994 65.099976 C 270.299988 73.700012 264.200012 82.200012 257.299988 90.599976 C 248.399994 98 239.899994 95.200012 231.5 82.200012 C 229.699997 79.400024 227.899994 76.400024 226.199997 73.099976 C 230.600006 79.799988 235 80.200012 239.700012 74.400024 C 251.200012 60.200012 272.100006 25.599976 292.399994 27.5 C 306 29 316.5 40.099976 325.600006 51.200012 C 318.200012 42.700012 313.799988 39.599976 305.299988 40.900024 C 290.299988 43.900024 282.899994 57.400024 276.899994 65.099976 Z"/>
            <linearGradient id="linearGradient4" x1="462.6972" y1="170.2725" x2="294.006" y2="45.0987" gradientUnits="userSpaceOnUse">
                <stop offset="0.007317" stop-color="#939598" stop-opacity="1"/>
                <stop offset="0.047965" stop-color="#afb1b3" stop-opacity="1"/>
                <stop offset="0.1002" stop-color="#cccdce" stop-opacity="1"/>
                <stop offset="0.1561" stop-color="#e3e3e4" stop-opacity="1"/>
                <stop offset="0.2164" stop-color="#f3f3f3" stop-opacity="1"/>
                <stop offset="0.2846" stop-color="#fcfcfc" stop-opacity="1"/>
                <stop offset="0.3769" stop-color="#ffffff" stop-opacity="1"/>
                <stop offset="0.38" stop-color="#ffffff" stop-opacity="1"/>
                <stop offset="0.7878" stop-color="#f1f2f2" stop-opacity="1"/>
                <stop offset="1" stop-color="#939598" stop-opacity="1"/>
            </linearGradient>
            <path id="path4" fill="url(#linearGradient4)" fill-rule="evenodd" stroke="none" d="M 450.700012 154.400024 C 464.799988 153.299988 476.799988 158.299988 478.399994 169.700012 C 479.100006 174.400024 476.600006 181.900024 472.299988 186.299988 C 472.100006 186.5 471.399994 187.099976 471.399994 187.099976 C 492.900024 168.400024 483.200012 141 447 139.099976 C 381.899994 137.099976 333 60.299988 333 60.299988 C 330.700012 57.400024 328.299988 54.299988 325.799988 51.200012 C 316.399994 39.599976 311.200012 38.700012 302.600006 40 C 295.399994 41.400024 287.200012 49.400024 278 63.900024 C 278 63.900024 278.700012 63 278.899994 62.799988 C 282.299988 58.599976 286.899994 53.299988 293 54.799988 C 297.200012 55.799988 307.700012 65.599976 319.299988 79 C 319.200012 78.900024 379.700012 159.799988 450.700012 154.400024 Z"/>
            <linearGradient id="linearGradient5" x1="45.1994" y1="125.5797" x2="705.8398" y2="234.741" gradientUnits="userSpaceOnUse">
                <stop offset="1e-05" stop-color="#ffffff" stop-opacity="1"/>
                <stop offset="0.4745" stop-color="#e6e7e8" stop-opacity="1"/>
                <stop offset="0.5524" stop-color="#e1e2e3" stop-opacity="1"/>
                <stop offset="0.6428" stop-color="#d3d4d5" stop-opacity="1"/>
                <stop offset="0.7394" stop-color="#bcbdbe" stop-opacity="1"/>
                <stop offset="0.8403" stop-color="#9b9c9e" stop-opacity="1"/>
                <stop offset="0.9436" stop-color="#727375" stop-opacity="1"/>
                <stop offset="1" stop-color="#58595b" stop-opacity="1"/>
            </linearGradient>
            <path id="path5" fill="url(#linearGradient5)" stroke="none" d="M 468.899994 144.5 C 468.899994 144.5 476.600006 160.400024 467.200012 172.200012 C 460.700012 180.400024 448.299988 186.700012 429 191.799988 C 409.799988 196.900024 368.899994 196.299988 337 183.5 C 324.200012 179.099976 305.799988 170.200012 294 165.400024 C 254.799988 149.400024 226.199997 129.5 182.600006 119.200012 C 113.699997 103 53.800003 119.799988 3.1 169.700012 C 57.5 125.400024 123.899994 117.599976 202.199997 146.5 C 241.399994 160.900024 282.899994 185.799988 315.200012 199.799988 C 320.700012 202.200012 327.200012 205.099976 334.200012 206.900024 C 343.600006 210 353 212.5 361.399994 213.599976 C 395.299988 217.900024 420.299988 220 451.100006 206.700012 C 484.200012 192.5 493.599976 157.099976 468.899994 144.5 Z"/>
            <linearGradient id="linearGradient6" x1="44.4971" y1="149.8944" x2="710.1095" y2="259.8773" gradientUnits="userSpaceOnUse">
                <stop offset="1e-05" stop-color="#ffffff" stop-opacity="1"/>
                <stop offset="0.4745" stop-color="#e6e7e8" stop-opacity="1"/>
                <stop offset="0.5524" stop-color="#e1e2e3" stop-opacity="1"/>
                <stop offset="0.6428" stop-color="#d3d4d5" stop-opacity="1"/>
                <stop offset="0.7394" stop-color="#bcbdbe" stop-opacity="1"/>
                <stop offset="0.8403" stop-color="#9b9c9e" stop-opacity="1"/>
                <stop offset="0.9436" stop-color="#727375" stop-opacity="1"/>
                <stop offset="1" stop-color="#58595b" stop-opacity="1"/>
            </linearGradient>
            <path id="path6" fill="url(#linearGradient6)" stroke="none" d="M 481.700012 159 C 481.700012 159 483.700012 188.900024 464.299988 208.200012 C 456.899994 215.599976 445.399994 222.700012 426.100006 227.799988 C 406.899994 232.900024 366 232.299988 334.100006 219.5 C 321.299988 215.099976 302.899994 206.200012 291.100006 201.400024 C 251.899994 185.400024 223.300003 165.5 179.699997 155.200012 C 110.800003 139 51 155.799988 0.200001 205.700012 C 54.599998 161.400024 121 153.599976 199.300003 182.5 C 238.5 196.900024 280 221.799988 312.299988 235.799988 C 317.799988 238.200012 324.299988 241.099976 331.299988 242.900024 C 340.700012 246 350.100006 248.5 358.5 249.599976 C 392.399994 253.900024 416.200012 253.799988 448.700012 238.299988 C 496.799988 215.5 486.799988 172.700012 481.700012 159 Z"/>
        </g>
        <g id="g3">
            <path id="path7" fill="#ffffff" stroke="none" d="M 555.400024 214.599976 L 581.700012 65.200012 C 582.900024 58.299988 586.400024 56.900024 593.099976 56.900024 L 683.5 56.900024 C 691.5 56.900024 692.700012 60.200012 691.5 66.799988 L 689 82 C 687.799988 88.900024 685 90.5 679.299988 90.5 L 614.400024 90.5 L 609 120.799988 L 638.799988 120.799988 C 668.900024 120.799988 685 135.700012 684 163.400024 C 683.099976 199.900024 660.799988 225 619.799988 225 L 562 225 C 555 225 554.200012 221 555.400024 214.599976 Z M 623.099976 191.900024 C 640.900024 191.900024 647.200012 180.5 647.200012 167.5 C 647.200012 158 643.400024 152.299988 631.599976 152.299988 L 603.400024 152.299988 L 596.299988 191.799988 L 623.099976 191.799988 Z"/>
            <path id="path8" fill="#ffffff" stroke="none" d="M 696.5 214.900024 L 722.799988 65.5 C 724 58.400024 727.5 57 734.400024 57 L 820.599976 57 C 828.200012 57 828.900024 60.599976 827.700012 67.700012 L 825.099976 82.599976 C 823.900024 89 821.5 91.099976 815.400024 91.099976 L 755.299988 91.099976 L 749.900024 123.099976 L 797.5 123.099976 C 804.400024 123.099976 806.299988 125.700012 805.099976 132.799988 L 802.299988 148.400024 C 801.099976 154.799988 798.700012 157.200012 792.799988 157.200012 L 744 157.200012 L 737.799988 191.099976 L 798.200012 191.099976 C 806 191.099976 807.400024 194.200012 806.200012 201.299988 L 803.400024 216.900024 C 802.200012 223.5 799.099976 225.200012 793.700012 225.200012 L 703.700012 225.200012 C 696.799988 225 695.400024 222 696.5 214.900024 Z"/>
            <path id="path9" fill="#ffffff" stroke="none" d="M 825.099976 214.099976 L 851.400024 65.200012 C 852.599976 58.799988 855.400024 56.900024 861.599976 56.900024 L 941.599976 56.900024 C 948.200012 56.900024 949.700012 60.200012 948.5 67.299988 L 945.900024 82.5 C 944.5 89.099976 942.099976 90.799988 936.400024 90.799988 L 883.799988 90.799988 L 861.799988 216.799988 C 860.400024 223.700012 857.299988 225.099976 850.900024 225.099976 L 832 225.099976 C 825.299988 225 823.900024 221.5 825.099976 214.099976 Z"/>
            <path id="path10" fill="#ffffff" stroke="none" d="M 939.700012 214.900024 L 966 65.200012 C 967.200012 58.799988 970 56.900024 977.099976 56.900024 L 995.599976 56.900024 C 1002.900024 56.900024 1003.900024 60.5 1002.700012 67.799988 L 993 123.200012 C 989 144.700012 986.099976 157.299988 978.099976 178.099976 L 979.799988 178.099976 C 989 158 994.5 144.5 1005.800049 128.599976 L 1054.099976 60.599976 C 1056.5 57.299988 1059.099976 56.799988 1063.800049 56.799988 L 1085.099976 56.799988 C 1092.400024 56.799988 1093.599976 59.900024 1092.400024 66.700012 L 1066.099976 216.299988 C 1065.199951 222.200012 1062.300049 224.799988 1055.900024 224.799988 L 1036.199951 224.799988 C 1029.599976 224.799988 1028.199951 221.700012 1029.300049 214.599976 L 1039.5 158.5 C 1043.099976 138.799988 1047.099976 124.400024 1055.599976 104 L 1053.900024 104 C 1044 125.099976 1037.800049 137.900024 1027.400024 152.299988 L 978.200012 221.200012 C 975.599976 224.5 973.700012 224.799988 969.200012 224.799988 L 946.700012 224.799988 C 939.900024 225 938.5 221.5 939.700012 214.900024 Z"/>
            <path id="path11" fill="#ffffff" stroke="none" d="M 1142.599976 214.099976 L 1168.900024 65.200012 C 1170.099976 59.299988 1173.199951 56.900024 1178.599976 56.900024 L 1233.800049 56.900024 C 1263.400024 56.900024 1279.699951 71.299988 1279.699951 96.700012 C 1279.699951 114.5 1272.400024 127.200012 1256.699951 137.200012 L 1256.5 138.099976 C 1267.400024 144.700012 1272.599976 153.700012 1272.599976 169.599976 C 1272.599976 203.200012 1248.900024 225 1211.300049 225 L 1150.5 225 C 1141.900024 225 1141.699951 221.200012 1142.599976 214.099976 Z M 1211.300049 191.900024 C 1226.199951 191.900024 1236.599976 182.900024 1236.599976 169.400024 C 1236.599976 160.400024 1231.199951 155.400024 1220.5 155.400024 L 1190.199951 155.400024 L 1183.599976 191.900024 L 1211.300049 191.900024 Z M 1222.199951 124.400024 C 1233.800049 124.400024 1241.599976 118.5 1242.300049 106.599976 C 1243.199951 95.5 1238.300049 89.799988 1227.099976 89.799988 L 1201.800049 89.799988 L 1195.599976 124.400024 L 1222.199951 124.400024 Z"/>
            <path id="path12" fill="#ffffff" stroke="none" d="M 1333.900024 214.099976 L 1360.199951 65.200012 C 1361.400024 58.799988 1364.199951 56.900024 1370.400024 56.900024 L 1450.400024 56.900024 C 1457 56.900024 1458.5 60.200012 1457.300049 67.299988 L 1454.699951 82.5 C 1453.300049 89.099976 1450.900024 90.799988 1445.199951 90.799988 L 1392.599976 90.799988 L 1370.599976 216.799988 C 1369.199951 223.700012 1366.099976 225.099976 1359.699951 225.099976 L 1340.800049 225.099976 C 1334.199951 225 1332.699951 221.5 1333.900024 214.099976 Z"/>
            <path id="path13" fill="#ffffff" stroke="none" d="M 1450.599976 164.200012 L 1459.400024 115.400024 C 1466.300049 76.299988 1490.199951 53.400024 1532.300049 53.400024 C 1573.300049 53.400024 1595.300049 78.5 1588.400024 117.799988 L 1579.599976 166.599976 C 1573 205.700012 1547.599976 228.599976 1506.400024 228.599976 C 1463.199951 228.599976 1443.800049 203.200012 1450.599976 164.200012 Z M 1509.800049 194.5 C 1528.5 194.5 1539.900024 183.799988 1543.199951 164.700012 L 1552 114.700012 C 1555.300049 96 1545.599976 87.5 1529 87.5 C 1510.099976 87.5 1499.400024 98.200012 1496.099976 117.299988 L 1487.099976 167 C 1484 184.799988 1491.800049 194.5 1509.800049 194.5 Z"/>
            <path id="path14" fill="#ffffff" stroke="none" d="M 1596 214.900024 L 1622.5 65 C 1623.699951 58.599976 1626.300049 57 1634.099976 57 L 1683.099976 57 C 1718.099976 57 1735.699951 74.299988 1735.699951 105.5 C 1735.699951 144.299988 1710.400024 169.700012 1671.300049 169.700012 L 1641.199951 169.700012 L 1632.699951 216.299988 C 1631.5 222.900024 1628.699951 225.099976 1622.5 225.099976 L 1603.599976 225.099976 C 1595.599976 225 1595.099976 221.700012 1596 214.900024 Z M 1670.099976 135.5 C 1688.099976 135.5 1698.5 126.5 1698.5 109.5 C 1698.5 97 1692.599976 91 1678.599976 91 L 1654.699951 91 L 1647.099976 135.5 L 1670.099976 135.5 Z"/>
            <path id="path15" fill="#ffffff" stroke="none" d="M 1753.199951 214.599976 L 1778.099976 175.299988 L 1750.900024 65.400024 C 1749.199951 59.700012 1750.199951 56.900024 1756.800049 56.900024 L 1775.300049 56.900024 C 1785 56.900024 1788.300049 58.099976 1789.699951 66.400024 L 1804.099976 134.400024 L 1845.300049 64.299988 C 1849.300049 57.400024 1851.199951 57 1859.699951 57 L 1879.099976 57 C 1886 57 1886.900024 61.700012 1883.599976 67.700012 L 1794.300049 217.799988 C 1790.300049 224.700012 1788.400024 225.099976 1778.900024 225.099976 L 1757.599976 225.099976 C 1751.099976 225 1749.900024 220.099976 1753.199951 214.599976 Z"/>
        </g>
    </g>
</svg>
