<svg xmlns="http://www.w3.org/2000/svg" xmlns:xlink="http://www.w3.org/1999/xlink" viewBox="0 0 387.38 427.72"><defs><style>.cls-1{fill:#fff;}.cls-2,.cls-3,.cls-4,.cls-5{fill-rule:evenodd;}.cls-2{fill:url(#linear-gradient);}.cls-3{fill:url(#linear-gradient-2);}.cls-4{fill:url(#linear-gradient-3);}.cls-5{fill:url(#linear-gradient-4);}.cls-6{fill:url(#linear-gradient-5);}.cls-7{fill:url(#linear-gradient-6);}</style><linearGradient id="linear-gradient" x1="91.77" y1="56.64" x2="169.61" y2="16.61" gradientUnits="userSpaceOnUse"><stop offset="0" stop-color="#fff"/><stop offset="0.47" stop-color="#e6e7e8"/><stop offset="1" stop-color="#939598"/></linearGradient><linearGradient id="linear-gradient-2" x1="137.83" y1="-25.36" x2="203.72" y2="103.94" gradientUnits="userSpaceOnUse"><stop offset="0" stop-color="#fff"/><stop offset="0.47" stop-color="#f1f2f2"/><stop offset="1" stop-color="#bcbec0"/></linearGradient><linearGradient id="linear-gradient-3" x1="268.28" y1="9.72" x2="209.33" y2="68.5" gradientUnits="userSpaceOnUse"><stop offset="0" stop-color="#f1f2f2"/><stop offset="0.47" stop-color="#fff"/><stop offset="1" stop-color="#fff"/></linearGradient><linearGradient id="linear-gradient-4" x1="369.99" y1="125.98" x2="245.2" y2="33.39" gradientUnits="userSpaceOnUse"><stop offset="0.01" stop-color="#939598"/><stop offset="0.05" stop-color="#afb1b3"/><stop offset="0.1" stop-color="#cccdce"/><stop offset="0.16" stop-color="#e3e3e4"/><stop offset="0.22" stop-color="#f3f3f3"/><stop offset="0.28" stop-color="#fcfcfc"/><stop offset="0.38" stop-color="#fff"/><stop offset="0.38" stop-color="#fff"/><stop offset="0.79" stop-color="#f1f2f2"/><stop offset="1" stop-color="#939598"/></linearGradient><linearGradient id="linear-gradient-5" x1="61.15" y1="92.92" x2="549.85" y2="173.67" gradientUnits="userSpaceOnUse"><stop offset="0" stop-color="#fff"/><stop offset="0.47" stop-color="#e6e7e8"/><stop offset="0.55" stop-color="#e1e2e3"/><stop offset="0.64" stop-color="#d3d4d5"/><stop offset="0.74" stop-color="#bcbdbe"/><stop offset="0.84" stop-color="#9b9c9e"/><stop offset="0.94" stop-color="#727375"/><stop offset="1" stop-color="#58595b"/></linearGradient><linearGradient id="linear-gradient-6" x1="61.29" y1="112.56" x2="553.66" y2="193.92" gradientTransform="translate(-0.65 -1.65)" xlink:href="#linear-gradient-5"/></defs><g id="Слой_2" data-name="Слой 2"><g id="Layer_1" data-name="Layer 1"><path class="cls-1" d="M19.61,313.61,37,215.08c.78-4.53,3.12-5.46,7.49-5.46h59.65c5.31,0,6.09,2.18,5.31,6.56l-1.72,10c-.78,4.53-2.65,5.62-6.4,5.62H58.49l-3.59,20H74.58c19.83,0,30.45,9.83,29.82,28.1-.62,24.05-15.3,40.6-42.31,40.6H24C19.3,320.48,18.83,317.83,19.61,313.61Zm44.66-15c11.71,0,15.93-7.49,15.93-16.08,0-6.25-2.5-10-10.31-10H51.31l-4.68,26.08Z"/><path class="cls-1" d="M112.68,313.77,130,215.24c.78-4.69,3.12-5.62,7.65-5.62H194.5c5,0,5.46,2.34,4.68,7l-1.72,9.84c-.78,4.22-2.34,5.62-6.4,5.62H151.4l-3.59,21.08H179.2c4.52,0,5.77,1.72,5,6.4l-1.87,10.31c-.78,4.22-2.34,5.78-6.25,5.78H143.91L139.85,298h39.81c5.16,0,6.09,2,5.31,6.71L183.1,315c-.78,4.37-2.81,5.46-6.4,5.46H117.36C112.83,320.48,111.9,318.45,112.68,313.77Z"/><path class="cls-1" d="M197.47,313.3l17.33-98.22c.78-4.21,2.65-5.46,6.71-5.46h52.78c4.37,0,5.31,2.18,4.53,6.87l-1.72,10c-.94,4.37-2.5,5.47-6.25,5.47H236.19L221.67,315c-.94,4.52-3,5.46-7.18,5.46H202C197.62,320.48,196.68,318.14,197.47,313.3Z"/><path class="cls-1" d="M273,313.77l17.33-98.69c.78-4.21,2.66-5.46,7.34-5.46h12.18c4.84,0,5.47,2.34,4.69,7.18l-6.41,36.54c-2.65,14.21-4.53,22.48-9.83,36.22h1.09c6.09-13.27,9.68-22.17,17.17-32.63l31.86-44.81c1.56-2.19,3.28-2.5,6.4-2.5h14.05c4.84,0,5.63,2,4.84,6.56l-17.33,98.68c-.62,3.9-2.5,5.62-6.71,5.62h-13c-4.37,0-5.31-2-4.53-6.71l6.71-37a156.13,156.13,0,0,1,10.62-35.91h-1.09c-6.56,13.89-10.62,22.33-17.49,31.85l-32.48,45.44c-1.72,2.19-3,2.34-5.93,2.34H277.72C273.2,320.48,272.26,318.14,273,313.77Z"/><path class="cls-1" d="M.18,420.69,13,348.24c.58-2.88,2.07-4,4.72-4H44.53c14.4,0,22.35,7,22.35,19.35,0,8.64-3.57,14.86-11.18,19.69l-.11.47c5.3,3.22,7.83,7.6,7.83,15.32C63.42,415.39,51.9,426,33.59,426H4C-.16,426-.28,424.15.18,420.69Zm33.41-10.83c7.25,0,12.32-4.37,12.32-10.94,0-4.38-2.65-6.8-7.83-6.8H23.34l-3.23,17.74ZM38.89,377c5.64,0,9.44-2.88,9.79-8.64.46-5.42-2-8.18-7.37-8.18H29L26,377Z"/><path class="cls-1" d="M93.25,420.69,106,348.24c.58-3.11,2-4,4.95-4h38.93c3.23,0,3.92,1.61,3.35,5.07L152,356.65c-.69,3.22-1.84,4-4.61,4H121.82L111.11,422c-.69,3.34-2.19,4-5.3,4H96.59C93.37,426,92.68,424.26,93.25,420.69Z"/><path class="cls-1" d="M150,396.39l4.26-23.73c3.34-19,15-30.18,35.48-30.18,19.93,0,30.64,12.21,27.3,31.33l-4.26,23.73c-3.23,19-15.55,30.18-35.6,30.18C156.15,427.72,146.7,415.39,150,396.39Zm28.8,14.74c9.1,0,14.63-5.18,16.24-14.51l4.26-24.31c1.61-9.1-3.11-13.24-11.17-13.24-9.22,0-14.4,5.18-16,14.51l-4.38,24.19C166.28,406.41,170.08,411.13,178.84,411.13Z"/><path class="cls-1" d="M220.77,421l12.9-72.92c.57-3.11,1.84-3.91,5.64-3.91h23.84c17.05,0,25.57,8.41,25.57,23.61,0,18.89-12.32,31.22-31.33,31.22H242.77l-4.15,22.69c-.58,3.22-2,4.26-5,4.26h-9.22C220.54,426,220.31,424.38,220.77,421Zm36-38.59c8.75,0,13.82-4.38,13.82-12.67,0-6.11-2.88-9-9.67-9H249.33l-3.68,21.66Z"/><path class="cls-1" d="M297.25,420.92l12.09-19.12L296.1,348.35c-.81-2.76-.35-4.14,2.88-4.14h9c4.72,0,6.34.57,7,4.6l7,33.06,20.05-34.09c1.95-3.34,2.88-3.57,7-3.57h9.45c3.34,0,3.8,2.3,2.19,5.18l-43.43,73c-2,3.34-2.88,3.57-7.48,3.57H299.44C296.21,426,295.64,423.57,297.25,420.92Z"/><path class="cls-2" d="M73.55,88.28l53.92-69c20-25.49,34.22,9.83,33.59,10.21-2.84-5-6.17-7.48-10-7.45C138.94,22.13,84,77.74,73.55,88.28Z"/><path class="cls-3" d="M127.47,19.29,132.38,13c13.78-17.36,31.5-18,42.93,2.2l7.85,15.25c4.67,9.08,10.29,21.79,15.84,30.44q9.23,14.4,19.06,6.19c-8,10.68-19.95,17.34-31.39,7.67a31.43,31.43,0,0,1-8.07-11.33l-16.33-31.6c-1-1.93-2-3.94-3.08-5.82C149.23,8.27,138.23,6.11,127.47,19.29Z"/><path class="cls-4" d="M232.54,48.2c-4.9,6.36-9.37,12.63-14.48,18.89Q208.22,75.3,199,60.9c-1.31-2-2.63-4.32-3.94-6.72q4.84,7.43,10,.94c8.51-10.48,24-36.13,39-34.71,10,1.11,17.85,9.3,24.54,17.54-5.45-6.27-8.72-8.57-15-7.64C242.43,32.51,237,42.46,232.54,48.2Z"/><path class="cls-5" d="M361.1,114.23c10.46-.8,19.3,2.88,20.51,11.3.5,3.48-1.34,9-4.54,12.28-.13.14-.64.62-.64.62,15.89-13.8,8.72-34.12-18.05-35.51C310.25,101.47,274,44.6,274,44.6c-1.72-2.15-3.49-4.45-5.36-6.75-6.94-8.55-10.81-9.24-17.13-8.31q-8,1.58-18.23,17.68l.67-.83c2.54-3.12,5.91-7,10.41-5.9,3.11.77,10.89,8,19.44,17.94C263.83,58.43,308.63,118.24,361.1,114.23Z"/><path class="cls-6" d="M374.6,106.91s5.69,11.76-1.26,20.52c-4.8,6-14,10.71-28.26,14.48s-44.46,3.34-68.05-6.12c-9.47-3.29-23.08-9.81-31.82-13.37-29-11.81-50.15-26.57-82.41-34.17Q86.32,70.23,30,125.58,90.43,76.4,177.26,108.42c29,10.68,59.73,29.07,83.6,39.44a95.84,95.84,0,0,0,14.07,5.26A108.52,108.52,0,0,0,295,158.07c25.11,3.17,43.55,4.71,66.33-5.08C385.91,142.45,392.84,116.23,374.6,106.91Z"/><path class="cls-7" d="M384.05,117.64s1.46,22.13-12.85,36.4c-5.46,5.45-14,10.71-28.26,14.48s-44.46,3.34-68.05-6.12c-9.47-3.29-23.08-9.81-31.82-13.37-29-11.8-50.15-26.56-82.41-34.16q-76.48-18-132.78,37.33Q88.29,103,175.12,135c29,10.68,59.74,29.08,83.6,39.44a95.84,95.84,0,0,0,14.07,5.26,108.41,108.41,0,0,0,20.12,5c25.1,3.17,42.66,3.12,66.75-8.34C395.24,159.42,387.85,127.79,384.05,117.64Z"/></g></g></svg>