<svg xmlns="http://www.w3.org/2000/svg" viewBox="0 0 346 486"><switch><g><path fill-rule="evenodd" d="M138 468.5h70c9.7 0 17.5-7.8 17.5-17.5s-7.8-17.5-17.5-17.5h-70c-9.7 0-17.5 7.8-17.5 17.5s7.8 17.5 17.5 17.5zM120.8 69C71.8 85.3 33 125.5 33 188.8v135.9l-20.5 41c-5.4 10.9-4.8 23.7 1.5 34.1 6.4 10.3 17.6 16.6 29.8 16.6h258.4c12.1 0 23.4-6.3 29.8-16.6 6.4-10.3 7-23.2 1.5-34.1l-20.5-41V188.8c0-63.3-38.8-103.4-87.8-119.7.2-1 .3-2 .3-3 0-29-23.5-52.5-52.5-52.5S120.5 37 120.5 66c0 1 .1 2.1.3 3zm181.4 312.3H43.8l22.3-44.7c1.2-2.4 1.9-5.1 1.9-7.8v-140c0-62.6 52.9-93 105-93s105 30.4 105 93v140c0 2.7.6 5.4 1.9 7.8l22.3 44.7zM189.9 61.6c-2-7.5-8.8-13.1-16.9-13.1s-15 5.6-16.9 13.1c5.6-.6 11.3-.8 16.9-.8s11.3.2 16.9.8z" clip-rule="evenodd"/></g></switch></svg>