<svg xmlns="http://www.w3.org/2000/svg" viewBox="0 0 478 454"><switch><g><path d="M407 17H71c-14.9 0-29.1 5.9-39.6 16.4A55.924 55.924 0 0 0 15 73v210c0 14.9 5.9 29.1 16.4 39.6C41.9 333.1 56.1 339 71 339h42v84c0 5.5 3.2 10.5 8.2 12.8 5 2.3 10.9 1.4 15-2.2l108-94.5H407c14.9 0 29.1-5.9 39.6-16.4 10.5-10.5 16.4-24.7 16.4-39.6V73c0-14.9-5.9-29.1-16.4-39.6A55.924 55.924 0 0 0 407 17zm-98 210H183c-7.7 0-14-6.3-14-14s6.3-14 14-14h126c7.7 0 14 6.3 14 14s-6.3 14-14 14zm0-70H183c-7.7 0-14-6.3-14-14s6.3-14 14-14h126c7.7 0 14 6.3 14 14s-6.3 14-14 14z"/></g></switch></svg>