<?xml version="1.0" encoding="utf-8"?>
<!-- Generator: Adobe Illustrator 25.2.3, SVG Export Plug-In . SVG Version: 6.00 Build 0)  -->
<svg version="1.1" id="Слой_1" xmlns="http://www.w3.org/2000/svg" xmlns:xlink="http://www.w3.org/1999/xlink" x="0px" y="0px"
	 viewBox="0 0 82.9 82.9" style="enable-background:new 0 0 82.9 82.9;" xml:space="preserve">
<g>
	<path d="M62.8,0c2.2,0,4.3,0,6.5,0c0,2.1,0,4.3,0,6.5c1.5,0,2.8,0,4.1,0c3.1,0.1,5.6,1.4,7.5,3.9c1.1,1.4,1.6,3,2,4.7
		c0,19.8,0,39.5,0,59.3c0,0.1-0.1,0.2-0.1,0.4c-1,5-4.8,8.2-9.8,8.2c-21,0-42,0-63,0c-5.7,0-10-4.2-10-10c0-18.8,0-37.6,0-56.4
		c0-0.8,0.1-1.7,0.3-2.5C1.4,9.4,5.2,6.5,10,6.5c1.2,0,2.4,0,3.6,0c0-2.2,0-4.4,0-6.5c2.2,0,4.3,0,6.5,0c0,2.1,0,4.3,0,6.4
		c14.3,0,28.5,0,42.7,0C62.8,4.3,62.8,2.1,62.8,0z M76.4,30.5c-23.4,0-46.6,0-70,0c0,0.3,0,0.6,0,0.9c0,13.7,0,27.4,0,41.1
		c0,2.6,1.2,3.9,3.8,3.9c20.8,0,41.5,0,62.3,0c2.6,0,3.9-1.2,3.9-3.9c0-13.7,0-27.4,0-41.1C76.4,31.1,76.4,30.9,76.4,30.5z
		 M6.5,23.9c23.4,0,46.6,0,69.9,0c0-2.7,0-5.3,0-7.9c0-1.5-1.2-2.8-2.7-3c-1.4-0.1-2.9,0-4.4,0c0,2.2,0,4.3,0,6.4
		c-2.2,0-4.3,0-6.5,0c0-2.2,0-4.3,0-6.4c-14.3,0-28.5,0-42.8,0c0,2.2,0,4.2,0,6.4c-2.2,0-4.3,0-6.5,0c0-2.2,0-4.3,0-6.4
		c-1.4,0-2.7,0-4,0c-1.7,0.1-3,1.4-3,3C6.4,18.6,6.5,21.2,6.5,23.9z"/>
	<path d="M12.3,43.7c0-2.2,0-4.2,0-6.4c2.1,0,4.2,0,6.4,0c0,2.1,0,4.2,0,6.4C16.6,43.7,14.5,43.7,12.3,43.7z"/>
	<path d="M31.7,43.7c-2.1,0-4.2,0-6.4,0c0-2.1,0-4.3,0-6.4c2.1,0,4.2,0,6.4,0C31.7,39.4,31.7,41.5,31.7,43.7z"/>
	<path d="M44.7,37.3c0,2.1,0,4.2,0,6.4c-2.1,0-4.2,0-6.4,0c0-2.1,0-4.2,0-6.4C40.4,37.3,42.5,37.3,44.7,37.3z"/>
	<path d="M57.6,37.3c0,2.1,0,4.2,0,6.4c-2.1,0-4.2,0-6.4,0c0-2.1,0-4.2,0-6.4C53.3,37.3,55.4,37.3,57.6,37.3z"/>
	<path d="M70.5,43.7c-2.2,0-4.2,0-6.4,0c0-2.1,0-4.2,0-6.4c2.1,0,4.2,0,6.4,0C70.5,39.4,70.5,41.5,70.5,43.7z"/>
	<path d="M12.3,56.6c0-2.2,0-4.2,0-6.4c2.1,0,4.2,0,6.4,0c0,2.1,0,4.2,0,6.4C16.6,56.6,14.5,56.6,12.3,56.6z"/>
	<path d="M31.7,50.2c0,2.1,0,4.2,0,6.4c-2.1,0-4.2,0-6.4,0c0-2.1,0-4.2,0-6.4C27.4,50.2,29.5,50.2,31.7,50.2z"/>
	<path d="M38.3,56.6c0-2.1,0-4.2,0-6.4c2.1,0,4.2,0,6.4,0c0,2.1,0,4.2,0,6.4C42.5,56.6,40.4,56.6,38.3,56.6z"/>
	<path d="M51.2,50.2c2.1,0,4.2,0,6.4,0c0,2.1,0,4.2,0,6.4c-2.1,0-4.2,0-6.4,0C51.2,54.5,51.2,52.4,51.2,50.2z"/>
	<path d="M64.2,56.6c0-2.1,0-4.2,0-6.4c2.1,0,4.3,0,6.4,0c0,2.1,0,4.2,0,6.4C68.5,56.6,66.3,56.6,64.2,56.6z"/>
	<path d="M12.4,63.2c2.1,0,4.2,0,6.4,0c0,2.1,0,4.2,0,6.4c-2.1,0-4.2,0-6.4,0C12.4,67.5,12.4,65.4,12.4,63.2z"/>
	<path d="M25.3,69.6c0-2.1,0-4.2,0-6.4c2.1,0,4.2,0,6.4,0c0,2.1,0,4.2,0,6.4C29.6,69.6,27.5,69.6,25.3,69.6z"/>
	<path d="M38.3,63.2c2.1,0,4.2,0,6.4,0c0,2.1,0,4.2,0,6.4c-2.1,0-4.2,0-6.4,0C38.3,67.5,38.3,65.3,38.3,63.2z"/>
	<path d="M51.2,63.2c2.2,0,4.2,0,6.4,0c0,2.1,0,4.2,0,6.4c-2.1,0-4.2,0-6.4,0C51.2,67.5,51.2,65.4,51.2,63.2z"/>
</g>
</svg>
