<svg xmlns="http://www.w3.org/2000/svg" width="66.219" height="66.22" viewBox="0 0 66.219 66.22">
  <defs>
    <style>
      .cls-1 {
        fill-rule: evenodd;
      }
    </style>
  </defs>
  <path id="_" data-name="î‘" class="cls-1" d="M102.725,1840.48v-6.63H82.872v6.63h19.853Zm-29.78-9.96a3.3,3.3,0,0,1,6.6,0v9.96a3.3,3.3,0,0,1-6.6,0v-9.96Zm33.11,0a3.3,3.3,0,0,1,6.6,0v9.96a3.3,3.3,0,0,1-6.6,0v-9.96Zm9.927,3.33h9.927v59.59H59.688v-59.59h9.927v6.63h-3.3v6.59H119.28v-6.59h-3.3v-6.63Zm-49.666,52.96H119.28V1850.4H66.316v36.41Z" transform="translate(-59.688 -1827.22)"/>
</svg>
