<?xml version="1.0" encoding="utf-8"?>
<!-- Generator: Adobe Illustrator 25.2.3, SVG Export Plug-In . SVG Version: 6.00 Build 0)  -->
<svg version="1.1" id="Слой_1" xmlns="http://www.w3.org/2000/svg" xmlns:xlink="http://www.w3.org/1999/xlink" x="0px" y="0px"
	 viewBox="0 0 578 580" style="enable-background:new 0 0 578 580;" xml:space="preserve">
<path d="M245.2,8l-15.7,62.6c-18.4,5.2-36.3,12.2-52.5,21.9l-55.6-32.8l-61.2,61.3l33.4,55.5c-9.2,16.2-16.6,34.1-21.9,52.5L9,244.7
	v87.1l62.6,15.7c5.2,18.4,12.2,36.3,21.9,52.5l-32.8,55.6l61.7,61.7l55.5-33.2c16.2,9.2,34.1,16.6,52.5,21.9l16.3,62.5h86.1
	l15.7-62.5c18.4-5.2,36.3-12.2,52.5-21.9l55.6,32.8l61.7-61.8l-33.2-55.5c9.2-16.2,16.6-34.1,21.9-52.5l62.1-15.7v-87.1l-62.6-15.7
	c-5.2-18.4-12.2-36.3-21.9-52.5l32.8-55.6l-61.7-61.7l-55.5,33.2C384,82.8,366,75.3,347.7,70.1L332.3,8L245.2,8z M289,139.2
	c82.2,0,148.8,66.5,148.8,148.8S371.2,436.8,289,436.8S140.2,370.2,140.2,288S206.8,139.2,289,139.2z"/>
</svg>
