<?xml version="1.0" encoding="utf-8"?>
<!-- Generator: Adobe Illustrator 25.2.3, SVG Export Plug-In . SVG Version: 6.00 Build 0)  -->
<svg version="1.1" id="Слой_1" xmlns="http://www.w3.org/2000/svg" xmlns:xlink="http://www.w3.org/1999/xlink" x="0px" y="0px"
	 viewBox="0 0 384 337.8" style="enable-background:new 0 0 384 337.8;" xml:space="preserve">
<g>
	<path d="M384,171.4c0,6.3,0,12.5,0,18.8c-0.2,0.8-0.6,1.7-0.7,2.5c-2,21.5-9.3,41-21.3,58.8c-1.5,2.2-1.7,4-0.9,6.5
		c6.8,21.1,13.6,42.3,20.2,63.5c0.8,2.4,1.2,5.2,0.7,7.7c-1.6,7.7-9.5,10.8-17.1,7c-20.4-10.3-40.7-20.6-61-31.1
		c-3-1.5-5.4-1.9-8.7-0.5c-16,6.5-32.7,10.1-49.9,10.8c-41.7,1.6-79.1-10.5-110.1-38.7c-32.6-29.6-47.6-66.8-42.8-110.9
		c3.9-35.3,20.9-64,48.4-86.2c48.5-39.2,116.7-45.2,171.3-15.1c34.1,18.8,57.5,46.6,67.7,84.7C381.9,156.3,382.7,163.9,384,171.4z
		 M191.8,169.2c-6.1,0.1-11.1,5.3-11,11.3c0.1,6.1,5.2,11.1,11.2,11.1c6.2,0,11.4-5.3,11.2-11.5C203.1,174,197.9,169.1,191.8,169.2z
		 M237,169.2c-6.1,0-11.2,5.1-11.2,11.2c0,6.1,5,11.2,11.1,11.3c6.2,0.1,11.5-5.2,11.4-11.4C248.2,174.2,243,169.1,237,169.2z
		 M281.9,169.2c-6.1,0-11.2,5.1-11.2,11.2c0,6.1,5,11.2,11.1,11.3c6.2,0.1,11.5-5.2,11.4-11.4C293.2,174.2,288,169.1,281.9,169.2z"
		/>
	<path d="M0,126.4c1.4-7.6,2.2-15.3,4.1-22.7C13.6,68.2,34.6,41,66,22.8c51.5-29.9,104.1-30.1,156.8-2.4c1.2,0.6,2.3,1.4,4.2,2.5
		c-6.4,0.8-11.9,1.3-17.4,2.2c-51.2,8.9-92.6,33.6-119.2,78.7C60.7,154.3,61.6,206,90.2,257.1c0.6,1.1,1.2,2.1,1.9,3.1
		c-0.3,0.1-0.4,0.3-0.5,0.2c-5.7-3.6-10.6-1-15.8,1.7c-18.9,9.9-38,19.5-57,29.1c-7.4,3.7-15.3,0.5-16.8-7.1c-0.5-2.4,0-5.2,0.7-7.7
		C9.3,255.3,16,234.1,22.9,213c0.8-2.5,0.6-4.3-0.9-6.5C10,188.8,2.8,169.4,0.7,148c-0.1-1-0.4-1.9-0.7-2.9C0,138.9,0,132.7,0,126.4
		z"/>
</g>
</svg>
