<?xml version="1.0" encoding="utf-8"?>
<!-- Generator: Adobe Illustrator 25.2.3, SVG Export Plug-In . SVG Version: 6.00 Build 0)  -->
<svg version="1.1" id="Слой_1" xmlns="http://www.w3.org/2000/svg" xmlns:xlink="http://www.w3.org/1999/xlink" x="0px" y="0px"
	 viewBox="0 0 287.9 231.8" style="enable-background:new 0 0 287.9 231.8;" xml:space="preserve">
<g>
	<g>
		<path d="M143.9,200c77.7,0,139.3-74.1,141.7-77.4c3-3.9,3-9.3,0-13.2c-2.4-3.3-63.9-77.4-141.7-77.4S4.7,106,2.3,109.3
			c-3,3.9-3,9.3,0,13.2C4.7,125.8,66.2,200,143.9,200z M143.9,52.9c55.2,0,103.3,45.6,119.5,63c-16.2,17.4-64.2,63-119.5,63
			s-103.3-45.6-119.5-63C40.7,98.5,88.7,52.9,143.9,52.9z"/>
		<path d="M143.9,171.6c30.8,0,55.7-24.8,55.7-55.7s-24.8-55.7-55.7-55.7s-55.7,24.8-55.7,55.7S113.1,171.6,143.9,171.6z
			 M143.9,80.2c19.7,0,35.7,16,35.7,35.7s-16,35.7-35.7,35.7s-35.7-16-35.7-35.7S124.2,80.2,143.9,80.2L143.9,80.2z"/>
	</g>
	<rect x="132.6" y="-27.7" transform="matrix(0.7553 0.6554 -0.6554 0.7553 111.1871 -65.9645)" width="22.7" height="287.2"/>
</g>
</svg>
