<?xml version="1.0" encoding="utf-8"?>
<!-- Generator: Adobe Illustrator 25.2.3, SVG Export Plug-In . SVG Version: 6.00 Build 0)  -->
<svg version="1.1" id="Слой_1" xmlns="http://www.w3.org/2000/svg" xmlns:xlink="http://www.w3.org/1999/xlink" x="0px" y="0px"
	 viewBox="0 0 554 328" style="enable-background:new 0 0 554 328;" xml:space="preserve">
<path d="M278,320.8c145,0,259.8-138.3,264.3-144.5c5.6-7.3,5.6-17.4,0-24.6C537.8,145.5,423,7.2,278,7.2S18.2,145.5,13.7,151.7
	c-5.6,7.3-5.6,17.4,0,24.6C18.2,182.5,133,320.8,278,320.8z M278,46.4c103,0,192.6,85.1,222.9,117.6
	C470.6,196.5,381,281.6,278,281.6S85.4,196.5,55.1,164C85.4,131.5,175,46.4,278,46.4z"/>
<path d="M278,273.2c60.5,0,109.2-48.7,109.2-109.2S338.5,54.8,278,54.8S168.8,103.5,168.8,164S217.5,273.2,278,273.2z M278,94
	c38.6,0,70,31.4,70,70s-31.4,70-70,70s-70-31.4-70-70S239.4,94,278,94L278,94z"/>
</svg>
