<?xml version="1.0" encoding="UTF-8"?>
<svg xmlns="http://www.w3.org/2000/svg" xmlns:xlink="http://www.w3.org/1999/xlink" width="36px" height="36px" viewBox="0 0 36 74" version="1.1">
<g id="surface1">
<path style=" stroke:none;fill-rule:nonzero;fill:rgb(7.45098%,7.45098%,9.019608%);fill-opacity:1;" d="M 23.703125 22.066406 L 23.703125 16.269531 C 23.703125 13.375 25.714844 12.703125 27.058594 12.703125 C 28.398438 12.703125 35.554688 12.703125 35.554688 12.703125 L 35.554688 0 L 23.925781 0 C 10.730469 0 7.824219 9.585938 7.824219 15.378906 L 7.824219 22.066406 L 0.445312 22.066406 L 0.445312 36.777344 L 8.046875 36.777344 C 8.046875 53.492188 8.046875 73.777344 8.046875 73.777344 L 23.253906 73.777344 C 23.253906 73.777344 23.253906 53.492188 23.253906 36.777344 L 34.4375 36.777344 L 35.109375 30.980469 L 36.003906 21.84375 L 23.703125 21.84375 Z M 23.703125 22.066406 "/>
</g>
</svg>
