<?xml version="1.0" encoding="utf-8"?>
<!-- Generator: Adobe Illustrator 25.2.3, SVG Export Plug-In . SVG Version: 6.00 Build 0)  -->
<svg version="1.1" id="Слой_1" xmlns="http://www.w3.org/2000/svg" xmlns:xlink="http://www.w3.org/1999/xlink" x="0px" y="0px"
	 viewBox="0 0 428 373" style="enable-background:new 0 0 428 373;" xml:space="preserve">
<path d="M310.4,10.5c-28.2,0-56.4,10.4-78.1,31.3l-18.6,17.9L195.6,42C152.4,0.1,82.7,0.1,39.5,42s-43.2,111,0,153
	c54.3,52.7,108.6,105.2,162.9,157.9l0,0c3.1,3,7.3,4.7,11.6,4.7c4.3,0,8.5-1.7,11.6-4.7l162.7-158c43.2-42,43.2-111,0-152.9
	C366.9,20.9,338.7,10.5,310.4,10.5L310.4,10.5z M310.4,43.9c19.8,0,39.6,7.4,54.8,22.1c30.3,29.4,30.3,75.2,0,104.6L214,317.5
	c-50.4-48.9-100.8-97.8-151.2-146.6c-30.3-29.4-30.3-75.3,0-104.6s79.1-29.4,109.4,0l30.1,29.1l0,0c3.1,3,7.3,4.7,11.6,4.7
	c4.3,0,8.5-1.7,11.6-4.7l30.3-29.2C271,51.3,290.7,43.9,310.4,43.9L310.4,43.9z"/>
</svg>
