<?xml version="1.0" encoding="utf-8"?>
<!-- Generator: Adobe Illustrator 22.1.0, SVG Export Plug-In . SVG Version: 6.00 Build 0)  -->
<svg version="1.1" id="Layer_1" xmlns="http://www.w3.org/2000/svg" xmlns:xlink="http://www.w3.org/1999/xlink" x="0px" y="0px"
	 viewBox="0 0 1920 1080" style="enable-background:new 0 0 1920 1080;" xml:space="preserve">
<style type="text/css">
	.st0{fill:#FFFFFF;}
	.st1{fill-rule:evenodd;clip-rule:evenodd;fill:url(#SVGID_1_);}
	.st2{fill-rule:evenodd;clip-rule:evenodd;fill:url(#SVGID_2_);}
	.st3{fill-rule:evenodd;clip-rule:evenodd;fill:url(#SVGID_3_);}
	.st4{fill-rule:evenodd;clip-rule:evenodd;fill:url(#SVGID_4_);}
	.st5{fill:url(#SVGID_5_);}
	.st6{fill:url(#SVGID_6_);}
</style>
<g>
	<g>
		<g>
			<g>
				<path class="st0" d="M564.1,753.7l41-233.1c1.8-10.7,7.4-12.9,17.7-12.9h141.1c12.6,0,14.4,5.2,12.6,15.5l-4.1,23.6
					c-1.8,10.7-6.3,13.3-15.1,13.3H656l-8.5,47.3h46.5c46.9,0,72,23.3,70.6,66.5c-1.5,56.9-36.2,96-100.1,96h-90.1
					C563.3,770,562.2,763.7,564.1,753.7z M669.7,718.3c27.7,0,37.7-17.7,37.7-38c0-14.8-5.9-23.6-24.4-23.6h-44L628,718.3H669.7z"/>
			</g>
			<g>
				<path class="st0" d="M784.2,754.1l41-233.1c1.8-11.1,7.4-13.3,18.1-13.3h134.5c11.8,0,12.9,5.5,11.1,16.6l-4.1,23.3
					c-1.8,10-5.5,13.3-15.1,13.3h-93.8l-8.5,49.9h74.2c10.7,0,13.7,4.1,11.8,15.1l-4.4,24.4c-1.8,10-5.5,13.7-14.8,13.7h-76.1
					l-9.6,52.8h94.2c12.2,0,14.4,4.8,12.6,15.9l-4.4,24.4c-1.8,10.3-6.6,12.9-15.1,12.9H795.3C784.6,770,782.4,765.2,784.2,754.1z"
					/>
			</g>
			<g>
				<path class="st0" d="M984.8,753l41-232.3c1.8-10,6.3-12.9,15.9-12.9h124.9c10.3,0,12.6,5.2,10.7,16.3l-4.1,23.6
					c-2.2,10.3-5.9,12.9-14.8,12.9h-82L1042,757c-2.2,10.7-7,12.9-17,12.9h-29.6C985.2,770,982.9,764.4,984.8,753z"/>
			</g>
			<g>
				<path class="st0" d="M1163.6,754.1l41-233.5c1.8-10,6.3-12.9,17.4-12.9h28.8c11.5,0,12.9,5.5,11.1,17l-15.1,86.4
					c-6.3,33.6-10.7,53.2-23.3,85.7h2.6c14.4-31.4,22.9-52.5,40.6-77.2l75.4-106c3.7-5.2,7.8-5.9,15.1-5.9h33.2
					c11.5,0,13.3,4.8,11.5,15.5l-41,233.5c-1.5,9.2-5.9,13.3-15.9,13.3h-30.7c-10.3,0-12.6-4.8-10.7-15.9l15.9-87.5
					c5.5-30.7,11.8-53.2,25.1-85h-2.6c-15.5,32.9-25.1,52.8-41.4,75.4l-76.8,107.5c-4.1,5.2-7,5.5-14,5.5h-35.1
					C1163.9,770,1161.7,764.4,1163.6,754.1z"/>
			</g>
		</g>
		<g>
			<g>
				<path class="st0" d="M518.1,1007l30.2-171.4c1.4-6.8,4.9-9.5,11.2-9.5H623c34.1,0,52.9,16.6,52.9,45.8
					c0,20.4-8.4,35.2-26.4,46.6l-0.3,1.1c12.5,7.6,18.5,18,18.5,36.2c0,38.7-27.2,63.8-70.6,63.8h-70
					C517.3,1019.6,517,1015.2,518.1,1007z M597.1,981.4c17.2,0,29.2-10.4,29.2-25.9c0-10.4-6.3-16.1-18.5-16.1h-34.9l-7.6,42H597.1z
					 M609.7,903.8c13.4,0,22.3-6.8,23.2-20.4c1.1-12.8-4.6-19.3-17.4-19.3h-29.2l-7.1,39.8H609.7z"/>
			</g>
			<g>
				<path class="st0" d="M738.3,1007l30.2-171.4c1.4-7.4,4.6-9.5,11.7-9.5h92.1c7.6,0,9.3,3.8,7.9,12l-3,17.4
					c-1.6,7.6-4.4,9.5-10.9,9.5h-60.5l-25.3,145c-1.6,7.9-5.2,9.5-12.5,9.5h-21.8C738.5,1019.6,736.9,1015.5,738.3,1007z"/>
			</g>
			<g>
				<path class="st0" d="M872.6,949.5l10.1-56.1c7.9-45,35.4-71.4,83.9-71.4c47.1,0,72.5,28.9,64.6,74.1l-10.1,56.1
					c-7.6,45-36.8,71.4-84.2,71.4C887,1023.7,864.7,994.5,872.6,949.5z M940.7,984.4c21.5,0,34.6-12.3,38.4-34.3l10.1-57.5
					c3.8-21.5-7.4-31.3-26.4-31.3c-21.8,0-34.1,12.3-37.9,34.3l-10.4,57.2C911,973.2,920,984.4,940.7,984.4z"/>
			</g>
			<g>
				<path class="st0" d="M1039.9,1007.9l30.5-172.5c1.4-7.4,4.4-9.3,13.4-9.3h56.4c40.3,0,60.5,19.9,60.5,55.9
					c0,44.7-29.2,73.8-74.1,73.8H1092l-9.8,53.7c-1.4,7.6-4.6,10.1-11.7,10.1h-21.8C1039.4,1019.6,1038.8,1015.8,1039.9,1007.9z
					 M1125.2,916.6c20.7,0,32.7-10.4,32.7-30c0-14.4-6.8-21.3-22.9-21.3h-27.5l-8.7,51.2H1125.2z"/>
			</g>
			<g>
				<path class="st0" d="M1220.8,1007.6l28.6-45.2l-31.3-126.4c-1.9-6.5-0.8-9.8,6.8-9.8h21.3c11.2,0,15,1.4,16.6,10.9l16.6,78.2
					l47.4-80.7c4.6-7.9,6.8-8.4,16.6-8.4h22.3c7.9,0,9,5.4,5.2,12.3l-102.7,172.8c-4.6,7.9-6.8,8.4-17.7,8.4H1226
					C1218.4,1019.6,1217,1013.8,1220.8,1007.6z"/>
			</g>
		</g>
	</g>
	<g>
		<linearGradient id="SVGID_1_" gradientUnits="userSpaceOnUse" x1="734.7587" y1="145.828" x2="918.9033" y2="51.1312">
			<stop  offset="0" style="stop-color:#FFFFFF"/>
			<stop  offset="0.4745" style="stop-color:#E6E7E8"/>
			<stop  offset="1" style="stop-color:#939598"/>
		</linearGradient>
		<path class="st1" d="M691.7,220.7L819.2,57.5c47.3-60.3,80.9,23.3,79.5,24.2C892,69.8,884.1,63.9,875.1,64
			C846.3,64.2,716.4,195.7,691.7,220.7z"/>
		<linearGradient id="SVGID_2_" gradientUnits="userSpaceOnUse" x1="843.7199" y1="-48.1644" x2="999.5831" y2="257.7277">
			<stop  offset="0" style="stop-color:#FFFFFF"/>
			<stop  offset="0.4745" style="stop-color:#F1F2F2"/>
			<stop  offset="1" style="stop-color:#BCBEC0"/>
		</linearGradient>
		<path class="st2" d="M819.2,57.5l11.6-14.9c32.6-41.1,74.5-42.7,101.6,5.2c7,13.6,13.2,25.6,18.6,36.1
			c11.1,21.5,24.3,51.5,37.5,72c14.6,22.7,29.6,27.6,45.1,14.6c-18.9,25.3-47.2,41-74.3,18.2c-7.5-6.3-13.9-15.3-19.1-26.8
			c-21.5-41.6-34.4-66.6-38.6-74.8c-2.4-4.6-4.8-9.3-7.3-13.8C870.7,31.4,844.7,26.3,819.2,57.5z"/>
		<linearGradient id="SVGID_3_" gradientUnits="userSpaceOnUse" x1="1152.3123" y1="34.8192" x2="1012.867" y2="173.877">
			<stop  offset="0" style="stop-color:#F1F2F2"/>
			<stop  offset="0.4745" style="stop-color:#FFFFFF"/>
			<stop  offset="1" style="stop-color:#FFFFFF"/>
		</linearGradient>
		<path class="st3" d="M1067.8,125.9c-11.6,15-22.2,29.9-34.3,44.7c-15.5,12.9-30.5,8.1-45.1-14.6c-3.1-4.8-6.2-10.2-9.3-15.9
			c7.6,11.7,15.5,12.4,23.6,2.2c20.1-24.8,56.7-85.5,92.3-82.1c23.7,2.6,42.2,22,58.1,41.5c-12.9-14.8-20.6-20.3-35.6-18.1
			C1091.2,88.7,1078.2,112.3,1067.8,125.9z"/>
		<linearGradient id="SVGID_4_" gradientUnits="userSpaceOnUse" x1="1392.9241" y1="309.8638" x2="1097.7257" y2="90.8179">
			<stop  offset="7.317070e-03" style="stop-color:#939598"/>
			<stop  offset="4.796476e-02" style="stop-color:#AFB1B3"/>
			<stop  offset="0.1002" style="stop-color:#CCCDCE"/>
			<stop  offset="0.1561" style="stop-color:#E3E3E4"/>
			<stop  offset="0.2164" style="stop-color:#F3F3F3"/>
			<stop  offset="0.2846" style="stop-color:#FCFCFC"/>
			<stop  offset="0.3769" style="stop-color:#FFFFFF"/>
			<stop  offset="0.38" style="stop-color:#FFFFFF"/>
			<stop  offset="0.7878" style="stop-color:#F1F2F2"/>
			<stop  offset="1" style="stop-color:#939598"/>
		</linearGradient>
		<path class="st4" d="M1371.9,282.1c24.7-1.9,45.6,6.8,48.5,26.7c1.2,8.2-3.2,21.3-10.7,29c-0.3,0.3-1.5,1.5-1.5,1.5
			c37.6-32.7,20.6-80.7-42.7-84c-113.9-3.4-199.6-138-199.6-138c-4.1-5.1-8.3-10.5-12.7-16c-16.4-20.2-25.6-21.9-40.5-19.7
			c-12.5,2.5-26.9,16.4-43.1,41.8c0,0,1.3-1.6,1.6-2c6-7.4,14-16.6,24.6-14c7.3,1.8,25.8,18.9,46,42.4
			C1141.8,150.1,1247.8,291.5,1371.9,282.1z"/>
		<linearGradient id="SVGID_5_" gradientUnits="userSpaceOnUse" x1="662.3307" y1="231.6542" x2="1818.4076" y2="422.6793">
			<stop  offset="0" style="stop-color:#FFFFFF"/>
			<stop  offset="0.4745" style="stop-color:#E6E7E8"/>
			<stop  offset="0.5524" style="stop-color:#E1E2E3"/>
			<stop  offset="0.6428" style="stop-color:#D3D4D5"/>
			<stop  offset="0.7394" style="stop-color:#BCBDBE"/>
			<stop  offset="0.8403" style="stop-color:#9B9C9E"/>
			<stop  offset="0.9436" style="stop-color:#727375"/>
			<stop  offset="1" style="stop-color:#58595B"/>
		</linearGradient>
		<path class="st5" d="M1403.8,264.8c0,0,13.5,27.8-3,48.5c-11.3,14.3-33.1,25.3-66.8,34.2c-33.5,8.9-105.2,7.9-161-14.5
			c-22.4-7.8-54.6-23.2-75.3-31.6c-68.5-27.9-118.6-62.8-194.9-80.8c-120.6-28.4-225.3,1-314.1,88.3
			c95.3-77.6,211.4-91.1,348.3-40.6c68.5,25.3,141.3,68.8,197.8,93.3c9.7,4.2,21,9.2,33.3,12.4c16.4,5.5,32.9,9.9,47.6,11.7
			c59.4,7.5,103,11.1,156.9-12C1430.6,348.8,1447,286.8,1403.8,264.8z"/>
		
			<linearGradient id="SVGID_6_" gradientUnits="userSpaceOnUse" x1="661.7523" y1="275.8551" x2="1826.5297" y2="468.3178" gradientTransform="matrix(1 0 0 1 -0.6505 -1.6517)">
			<stop  offset="0" style="stop-color:#FFFFFF"/>
			<stop  offset="0.4745" style="stop-color:#E6E7E8"/>
			<stop  offset="0.5524" style="stop-color:#E1E2E3"/>
			<stop  offset="0.6428" style="stop-color:#D3D4D5"/>
			<stop  offset="0.7394" style="stop-color:#BCBDBE"/>
			<stop  offset="0.8403" style="stop-color:#9B9C9E"/>
			<stop  offset="0.9436" style="stop-color:#727375"/>
			<stop  offset="1" style="stop-color:#58595B"/>
		</linearGradient>
		<path class="st6" d="M1426.2,290.1c0,0,3.4,52.3-30.4,86.1c-12.9,12.9-33.1,25.3-66.8,34.2c-33.5,8.9-105.2,7.9-161-14.5
			c-22.4-7.8-54.6-23.2-75.3-31.6c-68.5-27.9-118.6-62.8-195-80.8c-120.6-28.4-225.3,1-314.1,88.3c95.3-77.6,211.4-91.1,348.3-40.6
			c68.5,25.3,141.3,68.8,197.8,93.3c9.7,4.2,21,9.2,33.3,12.4c16.4,5.5,32.9,9.9,47.6,11.7c59.4,7.5,100.9,7.4,157.9-19.7
			C1452.6,389,1435.2,314.1,1426.2,290.1z"/>
	</g>
</g>
</svg>
