<svg xmlns="http://www.w3.org/2000/svg" xmlns:xlink="http://www.w3.org/1999/xlink" viewBox="0 0 937.44 109.68"><defs><style>.cls-1{fill:url(#linear-gradient);}.cls-2{fill:url(#linear-gradient-2);}.cls-3{fill:url(#linear-gradient-3);}.cls-4{fill:url(#linear-gradient-4);}.cls-5{fill:url(#linear-gradient-5);}.cls-6{fill:url(#linear-gradient-6);}.cls-7{fill:url(#linear-gradient-7);}.cls-8{fill:url(#linear-gradient-8);}.cls-9{fill:url(#linear-gradient-9);}.cls-10{fill:#a33d7e;}</style><linearGradient id="linear-gradient" x1="-287.41" y1="194.43" x2="1106.52" y2="-261.03" gradientUnits="userSpaceOnUse"><stop offset="0" stop-color="#de3b54"/><stop offset="0.47" stop-color="#7f3f98"/></linearGradient><linearGradient id="linear-gradient-2" x1="-278.23" y1="222.53" x2="1115.71" y2="-232.94" xlink:href="#linear-gradient"/><linearGradient id="linear-gradient-3" x1="-272.6" y1="239.73" x2="1121.34" y2="-215.73" xlink:href="#linear-gradient"/><linearGradient id="linear-gradient-4" x1="-262.97" y1="269.22" x2="1130.97" y2="-186.24" xlink:href="#linear-gradient"/><linearGradient id="linear-gradient-5" x1="-251.83" y1="303.31" x2="1142.11" y2="-152.15" xlink:href="#linear-gradient"/><linearGradient id="linear-gradient-6" x1="-241.88" y1="333.77" x2="1152.06" y2="-121.7" xlink:href="#linear-gradient"/><linearGradient id="linear-gradient-7" x1="-232.58" y1="362.22" x2="1161.35" y2="-93.25" xlink:href="#linear-gradient"/><linearGradient id="linear-gradient-8" x1="-226.04" y1="382.24" x2="1167.9" y2="-73.22" xlink:href="#linear-gradient"/><linearGradient id="linear-gradient-9" x1="-217.44" y1="408.56" x2="1176.5" y2="-46.9" xlink:href="#linear-gradient"/></defs><g id="Слой_2" data-name="Слой 2"><g id="Layer_1" data-name="Layer 1"><path class="cls-1" d="M104.78,100.94,121.23,7.41c.74-4.3,3-5.19,7.12-5.19H185c5,0,5.78,2.08,5,6.23l-1.63,9.48c-.74,4.3-2.52,5.34-6.07,5.34H141.69l-3.41,19H157c18.83,0,28.9,9.34,28.31,26.68-.59,22.83-14.52,38.54-40.16,38.54H108.93C104.48,107.46,104,104.94,104.78,100.94Zm42.39-14.23c11.12,0,15.12-7.12,15.12-15.27,0-5.93-2.37-9.49-9.78-9.49H134.87l-4.45,24.76Z"/><path class="cls-2" d="M193.12,101.08,209.57,7.56c.74-4.45,3-5.34,7.26-5.34h53.95c4.75,0,5.19,2.23,4.45,6.67l-1.63,9.34c-.74,4-2.23,5.34-6.08,5.34H229.87l-3.4,20h29.79c4.3,0,5.48,1.63,4.74,6.07l-1.78,9.78c-.74,4-2.22,5.49-5.93,5.49H222.76l-3.85,21.19H256.7c4.89,0,5.78,1.93,5,6.38L260,102.27c-.74,4.15-2.67,5.19-6.07,5.19H197.56C193.27,107.46,192.38,105.53,193.12,101.08Z"/><path class="cls-3" d="M273.6,100.64,290.05,7.41c.74-4,2.52-5.19,6.37-5.19h50.1c4.15,0,5,2.08,4.3,6.52l-1.63,9.49c-.89,4.15-2.37,5.19-5.93,5.19h-32.9l-13.79,78.85c-.89,4.3-2.81,5.19-6.82,5.19H277.9C273.75,107.46,272.86,105.23,273.6,100.64Z"/><path class="cls-4" d="M345.34,101.08,361.79,7.41c.74-4,2.52-5.19,7-5.19h11.56c4.6,0,5.19,2.23,4.45,6.82l-6.08,34.68c-2.52,13.49-4.29,21.35-9.33,34.39h1c5.78-12.6,9.19-21,16.31-31L416.92,4.6C418.41,2.52,420,2.22,423,2.22h13.34c4.59,0,5.34,1.93,4.59,6.23l-16.45,93.67c-.59,3.71-2.37,5.34-6.37,5.34h-12.3c-4.15,0-5-1.93-4.3-6.38L407.88,66A148.19,148.19,0,0,1,418,31.87h-1c-6.22,13.19-10.07,21.19-16.6,30.23L369.5,105.23c-1.64,2.08-2.82,2.23-5.64,2.23H349.78C345.48,107.46,344.59,105.23,345.34,101.08Z"/><path class="cls-5" d="M472.36,100.64,488.81,7.41c.74-3.7,2.67-5.19,6.08-5.19h34.53c18.53,0,28.75,9,28.75,24.9,0,11.12-4.59,19.12-14.37,25.35l-.15.59c6.82,4.15,10.08,9.78,10.08,19.71,0,21-14.82,34.69-38.39,34.69H477.25C471.91,107.46,471.76,105.09,472.36,100.64Zm43-13.93c9.34,0,15.86-5.64,15.86-14.08,0-5.64-3.41-8.75-10.08-8.75h-19L498,86.71Zm6.82-42.25c7.26,0,12.15-3.7,12.6-11.11.59-7-2.52-10.52-9.49-10.52H509.41l-3.85,21.63Z"/><path class="cls-6" d="M592.12,100.64,608.57,7.41c.74-4,2.52-5.19,6.37-5.19H665c4.15,0,5,2.08,4.3,6.52l-1.63,9.49c-.89,4.15-2.37,5.19-5.93,5.19H628.87l-13.78,78.85c-.89,4.3-2.82,5.19-6.82,5.19H596.41C592.26,107.46,591.38,105.23,592.12,100.64Z"/><path class="cls-7" d="M665.19,69.36l5.48-30.53C675,14.38,689.94,0,716.32,0,742,0,755.75,15.71,751.45,40.31L746,70.85c-4.15,24.45-20,38.83-45.8,38.83C673,109.68,660.89,93.82,665.19,69.36Zm37,19c11.71,0,18.83-6.67,20.9-18.68l5.49-31.27c2.07-11.71-4-17-14.38-17-11.86,0-18.53,6.67-20.6,18.68L688,71.14C686.09,82.26,691,88.34,702.24,88.34Z"/><path class="cls-8" d="M756.2,101.08,772.8,7.26c.74-4,2.37-5,7.26-5h30.68c21.93,0,32.9,10.82,32.9,30.39,0,24.3-15.86,40.16-40.31,40.16H784.5L779.17,102c-.74,4.15-2.52,5.49-6.37,5.49H760.94C755.9,107.46,755.6,105.38,756.2,101.08Zm46.39-49.65c11.26,0,17.78-5.63,17.78-16.3,0-7.86-3.7-11.56-12.45-11.56H793l-4.74,27.86Z"/><path class="cls-9" d="M854.61,100.94l15.57-24.61-17-68.77c-1-3.56-.44-5.34,3.71-5.34H868.4c6.07,0,8.15.74,9,5.93l9,42.54L912.27,6.82c2.52-4.3,3.7-4.6,9-4.6h12.15c4.3,0,4.89,3,2.82,6.67l-55.88,94c-2.52,4.3-3.7,4.6-9.63,4.6H857.43C853.28,107.46,852.54,104.34,854.61,100.94Z"/><path class="cls-10" d="M41.49,106A3.55,3.55,0,0,1,38,101.65L43.34,77.8a.72.72,0,0,0-.15-.62.71.71,0,0,0-.56-.27h-10a.72.72,0,0,0-.71.57L26.22,103.2A3.52,3.52,0,0,1,22.75,106H13.37a3.55,3.55,0,0,1-3.47-4.34l5.38-24a.72.72,0,0,0-.71-.88H5A3.56,3.56,0,0,1,1.5,72.44l2.12-9.63A3.59,3.59,0,0,1,7.1,60H18.88a.73.73,0,0,0,.71-.57L22,48.5a.74.74,0,0,0-.15-.61.71.71,0,0,0-.56-.27H11.53A3.57,3.57,0,0,1,8.05,43.3l2.13-9.77a3.58,3.58,0,0,1,3.48-2.81H25.37a.73.73,0,0,0,.71-.56l5.3-23.68a3.53,3.53,0,0,1,3.47-2.79h9.09A3.56,3.56,0,0,1,47.42,8L42.6,29.84a.7.7,0,0,0,.14.61.73.73,0,0,0,.57.27h9.75a.72.72,0,0,0,.71-.56L59.13,6.47a3.54,3.54,0,0,1,3.48-2.78H71.7A3.56,3.56,0,0,1,75.17,8L70.3,29.84a.72.72,0,0,0,.7.88h9.31A3.56,3.56,0,0,1,83.79,35l-2.12,9.78a3.59,3.59,0,0,1-3.48,2.8H67.06a.75.75,0,0,0-.71.57L64,59.13a.7.7,0,0,0,.14.61.71.71,0,0,0,.57.27h9.23a3.56,3.56,0,0,1,3.47,4.34l-2.17,9.77a3.54,3.54,0,0,1-3.48,2.79H60.5a.74.74,0,0,0-.71.57L54.06,103.2A3.54,3.54,0,0,1,50.58,106ZM39.22,47.62a.73.73,0,0,0-.71.57L36.05,59.13a.74.74,0,0,0,.14.61.75.75,0,0,0,.57.27h9.87a.73.73,0,0,0,.71-.57L49.7,48.5a.73.73,0,0,0-.15-.61.71.71,0,0,0-.56-.27Z"/><path class="cls-10" d="M71.7,5.11a2.14,2.14,0,0,1,2.09,2.61L68.91,29.53A2.14,2.14,0,0,0,71,32.14h9.31a2.15,2.15,0,0,1,2.1,2.6l-2.13,9.77a2.14,2.14,0,0,1-2.09,1.69H67.06A2.15,2.15,0,0,0,65,47.89L62.56,58.83a2.15,2.15,0,0,0,2.1,2.6h9.23A2.14,2.14,0,0,1,76,64L73.8,73.82a2.14,2.14,0,0,1-2.09,1.67H60.5a2.15,2.15,0,0,0-2.09,1.68l-5.74,25.72a2.15,2.15,0,0,1-2.09,1.68H41.49A2.15,2.15,0,0,1,39.4,102L44.72,78.1a2.15,2.15,0,0,0-2.09-2.61h-10a2.15,2.15,0,0,0-2.1,1.68l-5.73,25.72a2.15,2.15,0,0,1-2.09,1.68H13.37A2.15,2.15,0,0,1,11.28,102l5.38-24a2.13,2.13,0,0,0-2.09-2.61H5a2.14,2.14,0,0,1-2.09-2.61L5,63.11a2.15,2.15,0,0,1,2.1-1.68H18.88A2.13,2.13,0,0,0,21,59.75l2.41-10.94a2.14,2.14,0,0,0-2.09-2.61H11.53a2.14,2.14,0,0,1-2.09-2.6l2.12-9.77a2.15,2.15,0,0,1,2.1-1.69H25.37a2.15,2.15,0,0,0,2.09-1.68l5.3-23.67a2.15,2.15,0,0,1,2.09-1.68h9.09A2.15,2.15,0,0,1,46,7.72L41.22,29.53a2.14,2.14,0,0,0,2.09,2.61h9.75a2.14,2.14,0,0,0,2.09-1.67L60.52,6.78a2.14,2.14,0,0,1,2.09-1.67H71.7M36.76,61.43h9.87a2.15,2.15,0,0,0,2.1-1.69L51.08,48.8A2.14,2.14,0,0,0,49,46.2H39.22a2.15,2.15,0,0,0-2.09,1.68L34.67,58.82a2.14,2.14,0,0,0,2.09,2.61M71.7,2.27H62.61a5,5,0,0,0-4.86,3.88L52.51,29.31H44.17l4.64-21a5,5,0,0,0-4.87-6.06H34.85A5,5,0,0,0,30,6.17L24.82,29.31H13.66a5,5,0,0,0-4.87,3.92L6.67,43a5,5,0,0,0,4.86,6h8.9L18.32,58.6H7.1a5,5,0,0,0-4.87,3.91L.12,72.13A5,5,0,0,0,5,78.18h8.73l-5.2,23.15a5,5,0,0,0,4.86,6.07h9.38a5,5,0,0,0,4.86-3.89l5.61-25.18h8.55l-5.14,23a5,5,0,0,0,4.86,6.06h9.09a5,5,0,0,0,4.86-3.89l5.62-25.18H71.71a5,5,0,0,0,4.86-3.9l2.18-9.77a5,5,0,0,0-4.86-6.06H65.52L67.62,49H78.19a5,5,0,0,0,4.86-3.92l2.13-9.78a5,5,0,0,0-4.87-6H71.87l4.69-21A5,5,0,0,0,71.7,2.27ZM39.78,49h8.35L46.07,58.6H37.63L39.78,49Z"/></g></g></svg>