<svg xmlns="http://www.w3.org/2000/svg" viewBox="0 0 100 70"><switch><g><path fill="#231f20" d="M62.6 43.5c1.2.6 1.9 1.5 2.2 2.8.3 1.3.4 2.6.3 4.1V66c0 1.1-.4 2.1-1.2 2.9-.8.8-1.7 1.2-2.8 1.2-1.3 0-2.3-.6-2.9-1.7s-1-2.2-1-3.2l.3-13.6-7.5-3.9-2 6.3c-.2.8-.6 1.6-1.3 2.1s-1.4 1-2.2 1.2l-13.7 2.2c-.2.1-.4.1-.6.1h-.6c-1 0-1.8-.3-2.6-1-.7-.6-1.2-1.4-1.4-2.4 0-.1 0-.3-.1-.4s0-.3 0-.4c0-1 .3-1.9 1-2.6.7-.7 1.5-1.2 2.5-1.3l11.3-1.7 2.8-9.5c.1 0 .2 0 .1-.1 0-.1 0-.1.1-.1 1.4 0 2.5-.5 3.5-1.4s1.5-2.1 1.5-3.5c0-.5-.1-1.1-.3-1.6-.2-.5-.4-1-.7-1.4l-2.5-3.5-.5-.7c0-.2.1-.4.1-.6s.1-.4.1-.6l6.8-3c.9-.4 1.6-1 2.1-1.8s.8-1.7.8-2.7c0-.7-.1-1.4-.4-2.1-.3-.6-.7-1.2-1.2-1.6h.4c1.5.2 2.6.8 3.3 1.6.7.9 1.2 1.9 1.4 3 .3 1.1.4 2.2.3 3.4-.1 1.2-.1 2.2-.1 3l-.6 3.6c-.2 1.2-.4 2.4-.7 3.5-.2 1.1-.5 2.2-.7 3.3-.2 1.1-.5 2-.7 3 .1.1.6.3 1.3.7.8.4 1.6.7 2.5 1.1.9.4 1.6.8 2.3 1.1l1.3.6zM45.7 33.2c.2.3.4.6.5.9.1.4.2.7.2 1.1 0 .9-.3 1.7-1 2.4s-1.5 1-2.4 1c-.5 0-.9-.1-1.4-.3-.4-.2-.8-.5-1.1-.8-.1-.1-.1-.1-.1-.2s-.1-.1-.1-.2l-7.3-10c-.2-.3-.3-.6-.5-.9-.1-.4-.2-.7-.2-1.1 0-.7.2-1.3.6-1.9s.9-1 1.5-1.3l9.3-4.1 3.9-1.7c.2-.1.4-.1.7-.2.2-.1.5-.1.7-.1.9 0 1.8.3 2.4 1 .7.7 1 1.5 1 2.4 0 .7-.2 1.3-.6 1.9-.4.6-.9 1-1.5 1.3l-7.4 3.2-2 .9 2.2 3 2.6 3.7zm13.7-19.1c-.2.1-.4.1-.7.1H58c-1.7 0-3.3-.5-4.6-1.6-1.3-1.1-2.1-2.5-2.4-4.1v-.7-.7c0-2 .7-3.6 2.1-5 1.4-1.4 3-2.1 5-2.1s3.7.7 5 2.1c1.4 1.4 2.1 3 2.1 5 0 1.8-.6 3.3-1.7 4.6s-2.5 2.1-4.1 2.4zm14 15.2c.3-.3.6-.7.8-1.1.2-.4.3-.9.3-1.4 0-.9-.3-1.8-1-2.4-.7-.7-1.5-1-2.4-1-.4 0-.7.1-1 .2-.3.1-.6.3-.9.4l-3.6 2.4-3.1 2.2-.8-2-1.5-3.8V26.4c-.2 1.7-.4 3.4-.7 5.1-.3 1.7-.6 3.2-1 4.6.3.4.7.6 1.1.8.4.2.9.3 1.4.3.4 0 .7-.1 1-.2s.6-.3.9-.4l10.2-7c.1 0 .1-.1.2-.1s0-.2.1-.2z"/></g></switch></svg>