<?xml version="1.0" encoding="UTF-8"?>
<svg xmlns="http://www.w3.org/2000/svg" xmlns:xlink="http://www.w3.org/1999/xlink" width="36px" height="36px" viewBox="0 0 36 35" version="1.1">
<g id="surface1">
<path style=" stroke:none;fill-rule:nonzero;fill:rgb(0%,0%,0%);fill-opacity:1;" d="M 34.449219 31.3125 C 32.085938 29.039062 29.285156 26.351562 26.410156 23.601562 C 26.414062 23.585938 26.429688 23.574219 26.4375 23.558594 C 26.738281 23.179688 27.023438 22.820312 27.289062 22.441406 C 29.25 19.632812 30.070312 16.511719 29.714844 13.167969 C 29.3125 9.3125 27.535156 6.121094 24.433594 3.691406 C 20.609375 0.691406 16.222656 -0.246094 11.40625 0.894531 C 8.0625 1.6875 5.265625 3.519531 3.121094 6.339844 C 1.851562 8.007812 1.003906 9.894531 0.609375 11.953125 C 0.53125 12.339844 0.476562 12.726562 0.421875 13.101562 C 0.394531 13.265625 0.375 13.441406 0.347656 13.605469 L 0.339844 13.652344 L 0.339844 15.558594 L 0.363281 15.632812 C 0.367188 15.667969 0.382812 15.699219 0.390625 15.738281 C 0.394531 15.753906 0.402344 15.78125 0.402344 15.785156 C 0.484375 16.875 0.710938 17.941406 1.058594 18.953125 C 2.246094 22.375 4.488281 25.027344 7.726562 26.847656 C 9.980469 28.113281 12.40625 28.746094 14.972656 28.746094 C 15.863281 28.746094 16.761719 28.671875 17.679688 28.519531 C 19.917969 28.148438 21.996094 27.28125 23.855469 25.945312 L 25.488281 27.519531 C 27.578125 29.527344 29.742188 31.605469 31.875 33.640625 C 32.070312 33.832031 32.296875 33.972656 32.496094 34.09375 C 32.578125 34.140625 32.652344 34.1875 32.722656 34.234375 L 32.898438 34.351562 L 33.800781 34.351562 L 33.984375 34.21875 C 34.039062 34.179688 34.101562 34.140625 34.167969 34.101562 C 34.367188 33.972656 34.613281 33.820312 34.796875 33.578125 C 35.207031 33.035156 35.332031 32.160156 34.449219 31.3125 Z M 21.824219 23.140625 C 19.871094 24.605469 17.6875 25.339844 15.292969 25.339844 C 14.804688 25.339844 14.3125 25.308594 13.804688 25.246094 C 9.617188 24.734375 6.578125 22.558594 4.761719 18.78125 C 4.1875 17.59375 3.867188 15.921875 3.875 14.199219 C 4.03125 10.441406 5.886719 7.414062 9.234375 5.453125 C 12.871094 3.328125 16.625 3.226562 20.40625 5.160156 C 23.746094 6.875 25.679688 9.558594 26.148438 13.160156 C 26.683594 17.238281 25.226562 20.59375 21.824219 23.140625 Z M 21.824219 23.140625 "/>
</g>
</svg>
