<?xml version="1.0" encoding="UTF-8"?>
<svg xmlns="http://www.w3.org/2000/svg" xmlns:xlink="http://www.w3.org/1999/xlink" width="256px" height="150px" viewBox="0 0 257 150" version="1.1">
<g id="surface1">
<path style=" stroke:none;fill-rule:nonzero;fill:rgb(7.45098%,7.45098%,9.019608%);fill-opacity:1;" d="M 254.484375 11.269531 C 251.671875 9.15625 239.003906 9.15625 227.035156 9.15625 C 215.070312 9.15625 202.402344 9.15625 199.585938 10.5625 C 196.773438 11.269531 191.140625 26.054688 183.398438 40.84375 C 174.953125 57.746094 163.691406 73.238281 157.355469 73.238281 C 148.910156 73.238281 151.023438 45.773438 151.023438 25.351562 C 151.726562 11.972656 149.613281 7.746094 147.503906 6.339844 C 141.871094 3.519531 128.5 0 128.5 0 C 128.5 0 90.492188 -2.816406 84.863281 14.085938 C 91.902344 14.789062 104.570312 12.675781 99.644531 64.085938 C 98.9375 66.195312 94.011719 88.027344 75.710938 59.15625 C 71.488281 52.113281 53.894531 9.15625 48.261719 9.15625 C 28.554688 8.449219 8.847656 7.746094 1.808594 11.269531 C -4.523438 14.789062 10.960938 45.070312 35.59375 84.507812 C 56.003906 116.902344 77.824219 142.253906 115.832031 148.589844 C 122.871094 149.296875 141.167969 150 147.503906 147.183594 C 151.023438 145.070312 146.800781 116.902344 160.171875 114.789062 C 165.804688 114.085938 189.03125 143.660156 198.179688 147.183594 C 203.105469 149.296875 215.070312 150 227.035156 150 C 239.707031 149.296875 254.484375 150.703125 255.894531 142.253906 C 258.710938 123.238281 217.183594 97.886719 215.777344 85.914062 C 214.367188 77.464844 231.261719 61.269531 239.707031 49.296875 C 249.558594 34.507812 260.820312 16.902344 254.484375 11.269531 Z M 254.484375 11.269531 "/>
</g>
</svg>
