<?xml version="1.0" encoding="UTF-8"?>
<svg xmlns="http://www.w3.org/2000/svg" xmlns:xlink="http://www.w3.org/1999/xlink" width="36px" height="36px" viewBox="0 0 36 37" version="1.1">
<g id="surface1">
<path style=" stroke:none;fill-rule:nonzero;fill:rgb(7.45098%,7.45098%,9.019608%);fill-opacity:1;" d="M 36 17.195312 C 35.78125 7.726562 27.925781 0.109375 18.328125 0.109375 C 8.835938 0.109375 1.089844 7.507812 0.65625 16.867188 C 0.65625 17.085938 0.65625 17.304688 0.65625 17.628906 C 0.65625 20.894531 1.527344 24.050781 3.164062 26.660156 L 0 36.019531 L 9.816406 32.972656 C 12.328125 34.386719 15.273438 35.148438 18.328125 35.148438 C 28.144531 35.148438 36 27.316406 36 17.628906 C 36 17.410156 36 17.304688 36 17.195312 Z M 18.328125 32.320312 C 15.273438 32.320312 12.546875 31.449219 10.144531 29.925781 L 4.472656 31.667969 L 6.328125 26.226562 C 4.582031 23.832031 3.492188 20.785156 3.492188 17.628906 C 3.492188 17.195312 3.492188 16.648438 3.492188 16.214844 C 4.253906 8.707031 10.691406 2.828125 18.328125 2.828125 C 26.183594 2.828125 32.507812 8.816406 33.164062 16.433594 C 33.273438 16.757812 33.273438 17.195312 33.273438 17.519531 C 33.164062 25.792969 26.617188 32.320312 18.328125 32.320312 Z M 18.328125 32.320312 "/>
<path style=" stroke:none;fill-rule:nonzero;fill:rgb(7.45098%,7.45098%,9.019608%);fill-opacity:1;" d="M 26.398438 21.113281 C 25.964844 20.894531 23.890625 19.914062 23.453125 19.695312 C 23.128906 19.589844 22.800781 19.480469 22.472656 19.914062 C 22.253906 20.351562 21.382812 21.328125 21.164062 21.546875 C 20.945312 21.765625 20.726562 21.875 20.289062 21.65625 C 19.855469 21.4375 18.4375 21.003906 16.800781 19.589844 C 15.492188 18.5 14.617188 17.085938 14.398438 16.648438 C 14.183594 16.214844 14.398438 15.996094 14.617188 15.78125 C 14.835938 15.5625 15.054688 15.34375 15.273438 15.019531 C 15.273438 14.910156 15.382812 14.910156 15.382812 14.800781 C 15.492188 14.691406 15.492188 14.472656 15.601562 14.363281 C 15.710938 14.148438 15.601562 13.820312 15.492188 13.601562 C 15.382812 13.386719 14.507812 11.316406 14.183594 10.445312 C 13.855469 9.578125 13.527344 9.792969 13.199219 9.792969 C 12.980469 9.792969 12.65625 9.683594 12.328125 9.683594 C 12.109375 9.683594 11.5625 9.792969 11.238281 10.230469 C 10.800781 10.664062 9.710938 11.753906 9.710938 13.820312 C 9.710938 14.257812 9.816406 14.800781 9.925781 15.234375 C 10.363281 16.757812 11.238281 17.957031 11.453125 18.171875 C 11.671875 18.390625 14.398438 22.960938 18.871094 24.703125 C 23.238281 26.445312 23.238281 25.792969 24.109375 25.792969 C 24.980469 25.683594 26.617188 24.8125 27.054688 23.722656 C 27.382812 22.742188 27.382812 21.875 27.273438 21.65625 C 27.164062 21.4375 26.835938 21.328125 26.398438 21.113281 Z M 26.398438 21.113281 "/>
</g>
</svg>
