<?xml version="1.0" encoding="UTF-8"?>
<svg xmlns="http://www.w3.org/2000/svg" xmlns:xlink="http://www.w3.org/1999/xlink" width="36px" height="36px" viewBox="0 0 36 27" version="1.1">
<g id="surface1">
<path style=" stroke:none;fill-rule:nonzero;fill:rgb(7.45098%,7.45098%,9.019608%);fill-opacity:1;" d="M 34.835938 6.542969 C 34.835938 6.542969 34.519531 4.050781 33.457031 3.011719 C 32.1875 1.660156 30.707031 1.660156 29.964844 1.558594 C 25.199219 1.039062 18 1.039062 18 1.039062 C 18 1.039062 10.800781 1.039062 5.929688 1.351562 C 5.292969 1.558594 3.8125 1.558594 2.433594 3.011719 C 1.375 4.050781 1.058594 6.542969 1.058594 6.542969 C 1.058594 6.542969 0.742188 9.449219 0.742188 12.359375 L 0.742188 15.058594 C 0.742188 17.964844 1.058594 20.875 1.058594 20.875 C 1.058594 20.875 1.375 23.367188 2.433594 24.402344 C 3.707031 25.859375 5.398438 25.753906 6.246094 25.960938 C 9 26.167969 18 26.273438 18 26.273438 C 18 26.273438 25.199219 26.273438 30.070312 25.960938 C 30.707031 25.859375 32.1875 25.859375 33.457031 24.507812 C 34.519531 23.46875 34.835938 20.976562 34.835938 20.976562 C 34.835938 20.976562 35.152344 18.070312 35.152344 15.160156 L 35.152344 12.460938 C 35.257812 9.347656 34.835938 6.542969 34.835938 6.542969 Z M 23.71875 13.292969 L 14.398438 18.277344 L 14.398438 8.308594 L 18.636719 10.59375 Z M 23.71875 13.292969 "/>
</g>
</svg>
